<svg width="342" height="255" viewBox="0 0 342 255" fill="none" xmlns="http://www.w3.org/2000/svg">
<g clip-path="url(#clip0_24003_1378)">
<path d="M342 223.804H0V223.975H342V223.804Z" fill="#E0E0E0"/>
<path d="M293.929 232.738H274.51V232.909H293.929V232.738Z" fill="#E0E0E0"/>
<path d="M269.496 232.82H252.143V232.991H269.496V232.82Z" fill="#E0E0E0"/>
<path d="M189.208 228.86H165.85V229.031H189.208V228.86Z" fill="#E0E0E0"/>
<path d="M233.258 234.16H200.795V234.331H233.258V234.16Z" fill="#E0E0E0"/>
<path d="M97.7023 228.661H66.2725V228.832H97.7023V228.661Z" fill="#E0E0E0"/>
<path d="M112.176 228.661H101.499V228.832H112.176V228.661Z" fill="#E0E0E0"/>
<path d="M70.2263 231.739H42.7227V231.91H70.2263V231.739Z" fill="#E0E0E0"/>
<path d="M162.108 193.298H30.0345C28.9999 193.296 28.0082 192.884 27.2773 192.152C26.5463 191.42 26.1357 190.427 26.1357 189.393V3.73448C26.1447 2.70576 26.5593 1.72214 27.2893 0.99726C28.0193 0.272384 29.0058 -0.135201 30.0345 -0.136963L162.108 -0.136963C163.144 -0.136963 164.137 0.274523 164.87 1.00697C165.602 1.73942 166.014 2.73284 166.014 3.76868V189.393C166.014 190.428 165.602 191.422 164.87 192.154C164.137 192.887 163.144 193.298 162.108 193.298ZM30.0345 -0.000162885C29.0452 0.00164902 28.0971 0.395919 27.3982 1.0961C26.6993 1.79629 26.3067 2.74517 26.3067 3.73448V189.393C26.3067 190.382 26.6993 191.331 27.3982 192.031C28.0971 192.731 29.0452 193.125 30.0345 193.127H162.108C163.097 193.124 164.045 192.729 164.745 192.029C165.445 191.33 165.839 190.382 165.843 189.393V3.73448C165.839 2.7451 165.445 1.79727 164.745 1.09767C164.045 0.398069 163.097 0.00344144 162.108 -0.000162885H30.0345Z" fill="#E0E0E0"/>
<path d="M310.064 193.298H177.984C176.949 193.295 175.958 192.882 175.226 192.15C174.494 191.419 174.082 190.427 174.078 189.393V3.73448C174.089 2.70513 174.505 1.72152 175.236 0.996831C175.967 0.272144 176.954 -0.13522 177.984 -0.136963L310.064 -0.136963C311.092 -0.133403 312.076 0.274976 312.805 0.999659C313.534 1.72434 313.947 2.70694 313.956 3.73448V189.393C313.957 189.905 313.857 190.412 313.662 190.885C313.467 191.359 313.18 191.789 312.819 192.151C312.458 192.514 312.028 192.802 311.556 192.999C311.083 193.196 310.576 193.297 310.064 193.298ZM177.984 -0.000162885C176.994 0.00344144 176.047 0.398069 175.347 1.09767C174.647 1.79727 174.253 2.7451 174.249 3.73448V189.393C174.253 190.382 174.647 191.33 175.347 192.029C176.047 192.729 176.994 193.124 177.984 193.127H310.064C311.054 193.124 312.001 192.729 312.701 192.029C313.401 191.33 313.795 190.382 313.799 189.393V3.73448C313.795 2.7451 313.401 1.79727 312.701 1.09767C312.001 0.398069 311.054 0.00344144 310.064 -0.000162885H177.984Z" fill="#E0E0E0"/>
<path d="M224.599 16.4639H48.8105V105.083H224.599V16.4639Z" fill="#E0E0E0"/>
<path d="M226.89 16.4639H51.1016V105.083H226.89V16.4639Z" fill="#EFEFEF"/>
<path d="M222.779 20.616H55.2197V100.918H222.779V20.616Z" fill="#F4F4F4"/>
<path d="M67.627 100.924L113.072 20.6226H134.365L88.9267 100.924H67.627Z" fill="white"/>
<path d="M96.0742 100.924L141.519 20.6226H162.812L117.374 100.924H96.0742Z" fill="white"/>
<path d="M155.268 100.924L200.706 20.6226H209.475L164.036 100.924H155.268Z" fill="white"/>
<path d="M168.23 20.616H162.033V100.918H168.23V20.616Z" fill="#E0E0E0"/>
<path d="M111.389 20.616H105.192V100.918H111.389V20.616Z" fill="#E0E0E0"/>
<path d="M170.405 17.531H164.208V103.565H170.405V17.531Z" fill="#F4F4F4"/>
<path d="M113.564 17.531H107.367V103.565H113.564V17.531Z" fill="#F4F4F4"/>
<path d="M222.778 20.616H221.048V100.918H222.778V20.616Z" fill="#E0E0E0"/>
<path d="M268.018 131.246C268.018 131.246 255.474 109.625 272.875 92.4153C272.875 92.4153 277.416 95.3702 277.348 99.351C277.28 103.332 272.485 104.337 273.511 107.662C274.537 110.986 279.072 114.242 276.103 116.985C273.135 119.727 276.575 122.176 276.377 125.535C276.178 128.893 268.018 131.246 268.018 131.246Z" fill="#E0E0E0"/>
<path d="M269.989 134.782C269.989 134.782 275.071 110.309 253.128 99.4604C253.128 99.4604 249.756 103.701 251.076 107.456C252.396 111.212 257.266 110.658 257.335 114.132C257.403 117.607 254.133 122.128 257.82 123.797C261.507 125.466 259.004 128.872 260.255 132.005C261.507 135.138 269.989 134.782 269.989 134.782Z" fill="#EBEBEB"/>
<path d="M258.818 128.565C258.818 128.565 259.037 138.77 267.478 138.77C275.918 138.77 276.144 128.565 276.144 128.565H258.818Z" fill="#F4F4F4"/>
<path d="M200.248 130.822C200.248 130.822 200.535 138.77 211.637 138.77C222.738 138.77 223.032 130.822 223.032 130.822H200.248Z" fill="#EBEBEB"/>
<path d="M226.014 132.792C226.014 132.792 226.233 138.77 234.577 138.77C242.922 138.77 243.134 132.792 243.134 132.792H226.014Z" fill="#EBEBEB"/>
<path d="M208.066 143.729H189.379V218.675H208.066V143.729Z" fill="#EBEBEB"/>
<path d="M285.111 218.668H192.963V223.805H285.111V218.668Z" fill="#EBEBEB"/>
<path d="M288.702 143.722H208.065V218.668H288.702V143.722Z" fill="#F4F4F4"/>
<path d="M281.357 150.972H215.412V177.553H281.357V150.972Z" fill="#EBEBEB"/>
<path d="M281.357 182.395H215.412V208.975H281.357V182.395Z" fill="#EBEBEB"/>
<path d="M255.817 153.886H240.981C240.497 153.886 240.034 153.695 239.692 153.354C239.349 153.013 239.156 152.55 239.154 152.067C239.158 151.584 239.351 151.121 239.693 150.779C240.035 150.438 240.497 150.244 240.981 150.24H255.817C256.3 150.244 256.762 150.438 257.104 150.779C257.446 151.121 257.639 151.584 257.643 152.067C257.641 152.55 257.448 153.013 257.105 153.354C256.763 153.695 256.3 153.886 255.817 153.886Z" fill="#F4F4F4"/>
<path d="M255.817 185.31H240.981C240.497 185.31 240.034 185.118 239.692 184.777C239.349 184.436 239.156 183.973 239.154 183.49C239.158 183.007 239.351 182.544 239.693 182.203C240.035 181.861 240.497 181.667 240.981 181.664H255.817C256.3 181.667 256.762 181.861 257.104 182.203C257.446 182.544 257.639 183.007 257.643 183.49C257.641 183.973 257.448 184.436 257.105 184.777C256.763 185.118 256.3 185.31 255.817 185.31Z" fill="#F4F4F4"/>
<path d="M291.185 138.77H208.059V143.729H291.185V138.77Z" fill="#EBEBEB"/>
<path d="M208.06 138.763H186.76V143.722H208.06V138.763Z" fill="#E0E0E0"/>
<path d="M287.02 28.9402H246.541V75.5753H287.02V28.9402Z" fill="#EBEBEB"/>
<path d="M291.617 28.9402H247.752V75.5753H291.617V28.9402Z" fill="#F4F4F4"/>
<path d="M287.944 32.6133H251.425V71.8954H287.944V32.6133Z" fill="white"/>
<path d="M275.871 42.1345H263.497C261.718 42.1345 260.275 43.5769 260.275 45.3562V59.1524C260.275 60.9317 261.718 62.3741 263.497 62.3741H275.871C277.65 62.3741 279.092 60.9317 279.092 59.1524V45.3562C279.092 43.5769 277.65 42.1345 275.871 42.1345Z" fill="#F4F4F4"/>
<path d="M184.057 180.384H179.358V223.805H184.057V180.384Z" fill="#E0E0E0"/>
<path opacity="0.5" d="M184.058 180.384H181.705V223.805H184.058V180.384Z" fill="#F4F4F4"/>
<path d="M163.476 192.546H160.248C160.601 192.247 160.886 191.874 161.081 191.453C161.276 191.033 161.376 190.575 161.376 190.111H123.12C123.121 190.575 123.222 191.033 123.419 191.454C123.615 191.875 123.9 192.247 124.255 192.546H121.068C119.925 192.546 118.829 193 118.021 193.808C117.213 194.616 116.759 195.712 116.759 196.855V209.42C116.759 210.563 117.213 211.659 118.021 212.467C118.829 213.276 119.925 213.73 121.068 213.73H163.476C164.619 213.73 165.715 213.276 166.523 212.467C167.331 211.659 167.785 210.563 167.785 209.42V196.855C167.785 195.712 167.331 194.616 166.523 193.808C165.715 193 164.619 192.546 163.476 192.546Z" fill="#F4F4F4"/>
<path d="M128.093 201.828H102.368C100.766 201.828 99.4678 203.126 99.4678 204.728V210.829C99.4678 212.431 100.766 213.729 102.368 213.729H128.093C129.695 213.729 130.993 212.431 130.993 210.829V204.728C130.993 203.126 129.695 201.828 128.093 201.828Z" fill="#EBEBEB"/>
<path d="M130.022 199.201H100.439C99.9026 199.201 99.4678 199.636 99.4678 200.173V201.281C99.4678 201.817 99.9026 202.252 100.439 202.252H130.022C130.558 202.252 130.993 201.817 130.993 201.281V200.173C130.993 199.636 130.558 199.201 130.022 199.201Z" fill="#E0E0E0"/>
<path d="M133.899 160.993C133.899 160.993 134.344 175.357 151.17 175.357C167.997 175.357 168.441 160.993 168.441 160.993H133.899Z" fill="#EBEBEB"/>
<path d="M73.7283 175.364H52.7432V180.384H73.7283V175.364Z" fill="#E0E0E0"/>
<path d="M200.344 175.364H73.7354V180.384H200.344V175.364Z" fill="#F4F4F4"/>
<path d="M73.7283 213.729H52.7432V218.75H73.7283V213.729Z" fill="#E0E0E0"/>
<path d="M57.4491 180.384H52.75V223.805H57.4491V180.384Z" fill="#E0E0E0"/>
<path opacity="0.5" d="M57.4496 180.384H55.0967V223.805H57.4496V180.384Z" fill="#F4F4F4"/>
<path d="M76.0809 180.384H71.3818V223.805H76.0809V180.384Z" fill="#F4F4F4"/>
<path d="M73.7348 180.384H71.3818V223.805H73.7348V180.384Z" fill="#E0E0E0"/>
<path d="M200.337 180.384H195.638V223.805H200.337V180.384Z" fill="#F4F4F4"/>
<path d="M197.991 180.384H195.638V223.805H197.991V180.384Z" fill="#E0E0E0"/>
<path d="M200.344 213.729H73.7354V218.75H200.344V213.729Z" fill="#F4F4F4"/>
<path d="M107.498 172.402H81.9707V175.364H107.498V172.402Z" fill="#E0E0E0"/>
<path d="M116.642 172.396H107.497V175.357H116.642V172.396Z" fill="#EBEBEB"/>
<path d="M171 254.694C244.244 254.694 303.62 251.228 303.62 246.951C303.62 242.675 244.244 239.208 171 239.208C97.7552 239.208 38.3789 242.675 38.3789 246.951C38.3789 251.228 97.7552 254.694 171 254.694Z" fill="#F5F5F5"/>
<path d="M149.022 65.3222C149.07 73.4276 143.263 73.3455 143.379 70.7942C143.495 68.2429 142.059 62.2511 143.379 62.8325C144.699 63.4139 149.002 61.7381 149.022 65.3222Z" fill="#1A2E35"/>
<path d="M145.37 80.0008C146.171 79.9392 147.778 80.6848 147.922 82.7984C147.959 83.4125 148.139 84.0095 148.446 84.5425C148.754 85.0754 149.18 85.5297 149.693 85.8695C149.693 85.8695 147.033 86.191 145.288 84.8093C143.866 83.6944 143.236 81.2525 143.982 80.7053C144.391 80.3776 144.864 80.1377 145.37 80.0008Z" fill="#1A2E35"/>
<path d="M144.323 74.2415C145.691 75.4521 146.943 78.6533 143.858 80.1717C140.773 81.6902 135.924 78.1197 135.924 78.1197L141.252 75.6505L144.323 74.2415Z" fill="#1A2E35"/>
<path d="M145.842 80.2951C145.767 79.8518 145.643 79.4182 145.473 79.0023C145.46 78.9677 145.44 78.9359 145.415 78.9089C145.39 78.8818 145.359 78.8601 145.326 78.8448C145.292 78.8295 145.255 78.8211 145.218 78.82C145.181 78.8188 145.145 78.825 145.11 78.8382H145.055L143.161 80.1036C143.13 80.1242 143.104 80.1507 143.084 80.1814C143.063 80.2122 143.049 80.2467 143.042 80.2829C143.035 80.3191 143.035 80.3563 143.043 80.3925C143.05 80.4286 143.065 80.4629 143.085 80.4934C143.107 80.5218 143.132 80.5472 143.161 80.5687C143.434 80.7674 143.728 80.9371 144.036 81.0748C144.481 81.2527 145.404 80.7465 145.719 80.5276C145.758 80.5033 145.79 80.469 145.812 80.4281C145.834 80.3872 145.844 80.3413 145.842 80.2951Z" fill="#581CD8"/>
<path opacity="0.3" d="M145.842 80.2951C145.767 79.8518 145.643 79.4182 145.473 79.0023C145.46 78.9677 145.44 78.9359 145.415 78.9089C145.39 78.8818 145.359 78.8601 145.326 78.8448C145.292 78.8295 145.255 78.8211 145.218 78.82C145.181 78.8188 145.145 78.825 145.11 78.8382H145.055L143.161 80.1036C143.13 80.1242 143.104 80.1507 143.084 80.1814C143.063 80.2122 143.049 80.2467 143.042 80.2829C143.035 80.3191 143.035 80.3563 143.043 80.3925C143.05 80.4286 143.065 80.4629 143.085 80.4934C143.107 80.5218 143.132 80.5472 143.161 80.5687C143.434 80.7674 143.728 80.9371 144.036 81.0748C144.481 81.2527 145.404 80.7465 145.719 80.5276C145.758 80.5033 145.79 80.469 145.812 80.4281C145.834 80.3872 145.844 80.3413 145.842 80.2951Z" fill="black"/>
<path d="M125.453 76.9367C124.693 76.6837 122.956 77.0257 122.313 79.0503C122.13 79.6375 121.814 80.1745 121.389 80.6194C120.964 81.0643 120.442 81.4052 119.864 81.6153C119.864 81.6153 122.375 82.5592 124.399 81.6153C126.041 80.8697 127.204 78.6399 126.636 77.9285C126.314 77.5197 125.911 77.182 125.453 76.9367Z" fill="#1A2E35"/>
<path d="M132.99 63.0173C130.22 63.7697 126.492 67.0529 128.147 71.0817C126.513 72.1966 124.419 75.4046 126.868 77.4566C129.502 79.6659 135.979 76.5674 135.979 76.5674L136.027 75.514L136.8 67.6754L132.99 63.0173Z" fill="#1A2E35"/>
<path d="M124.925 77.1141C125.108 76.6992 125.337 76.3067 125.609 75.9445C125.658 75.8856 125.727 75.8483 125.803 75.8406C125.878 75.8329 125.954 75.8555 126.013 75.9035L126.054 75.9445L127.586 77.6203C127.612 77.6463 127.633 77.6773 127.647 77.7113C127.661 77.7453 127.668 77.7818 127.668 77.8187C127.668 77.8555 127.661 77.892 127.647 77.926C127.633 77.9601 127.612 77.991 127.586 78.017C127.565 78.0429 127.536 78.062 127.504 78.0717C127.194 78.1993 126.87 78.2933 126.54 78.3522C126.061 78.4206 125.322 77.7161 125.035 77.4288C124.987 77.3935 124.951 77.3446 124.931 77.2885C124.912 77.2323 124.91 77.1715 124.925 77.1141Z" fill="#581CD8"/>
<path opacity="0.3" d="M124.925 77.1141C125.108 76.6992 125.337 76.3067 125.609 75.9445C125.658 75.8856 125.727 75.8483 125.803 75.8406C125.878 75.8329 125.954 75.8555 126.013 75.9035L126.054 75.9445L127.586 77.6203C127.612 77.6463 127.633 77.6773 127.647 77.7113C127.661 77.7453 127.668 77.7818 127.668 77.8187C127.668 77.8555 127.661 77.892 127.647 77.926C127.633 77.9601 127.612 77.991 127.586 78.017C127.565 78.0429 127.536 78.062 127.504 78.0717C127.194 78.1993 126.87 78.2933 126.54 78.3522C126.061 78.4206 125.322 77.7161 125.035 77.4288C124.987 77.3935 124.951 77.3446 124.931 77.2885C124.912 77.2323 124.91 77.1715 124.925 77.1141Z" fill="black"/>
<path d="M149.851 91.5674C151.157 92.5797 152.587 93.6604 154.023 94.6454C155.46 95.6303 156.903 96.6221 158.387 97.5319C159.871 98.4416 161.376 99.2897 162.895 100.097L164.037 100.678L165.2 101.219C165.583 101.403 165.973 101.567 166.369 101.718L166.951 101.957C167.149 102.033 167.361 102.128 167.484 102.163C168.199 102.381 168.932 102.538 169.673 102.634C170.48 102.751 171.328 102.833 172.19 102.894C173.907 103.004 175.672 103.052 177.443 103.059C179.215 103.065 181.007 103.059 182.792 103.004L188.162 102.853L188.497 105.541C184.904 106.265 181.276 106.801 177.628 107.149C175.788 107.313 173.941 107.436 172.053 107.45C171.109 107.45 170.152 107.45 169.167 107.361C168.108 107.3 167.058 107.128 166.034 106.848C165.72 106.766 165.521 106.684 165.289 106.609L164.605 106.369C164.146 106.219 163.695 106.054 163.237 105.87L161.91 105.336L160.61 104.762C158.892 103.988 157.218 103.121 155.596 102.163C153.982 101.212 152.395 100.227 150.863 99.1735C149.299 98.1139 147.792 96.9723 146.349 95.7535L149.851 91.5674Z" fill="#EEC1BB"/>
<path d="M142.751 88.4961C144.454 87.1691 151.465 91.5125 153.599 93.3251L152.046 102.716C152.046 102.716 141.957 98.4893 141.348 95.6029C140.719 92.5864 141.465 89.5084 142.751 88.4961Z" fill="#1A2E35"/>
<path d="M187.415 103.086L191.642 99.8093L191.977 104.878C191.977 104.878 189.064 106.684 187.142 105.562L187.415 103.086Z" fill="#EEC1BB"/>
<path d="M195.411 99.3101L197.573 101.718L191.95 104.878L191.615 99.8094L195.411 99.3101Z" fill="#EEC1BB"/>
<path d="M115.104 240.269L120.432 240.666L122.374 228.402L117.053 228.005L115.104 240.269Z" fill="#EEC1BB"/>
<path d="M77.4082 223.128L81.9294 225.973L89.9801 216.425L85.4589 213.573L77.4082 223.128Z" fill="#EEC1BB"/>
<path d="M83.3586 224.954L79.1247 220.693C79.0516 220.62 78.9548 220.576 78.8519 220.568C78.7489 220.561 78.6467 220.59 78.5638 220.652L74.7129 223.532C74.5353 223.675 74.4219 223.883 74.3975 224.11C74.3731 224.337 74.4398 224.564 74.5829 224.742L74.6445 224.811C76.1424 226.268 76.9427 226.897 78.8032 228.771C79.9455 229.927 81.4982 231.726 83.0782 233.32C84.6582 234.913 86.3135 233.429 85.8142 232.636C83.5023 229.031 83.9195 227.683 83.7622 225.85C83.7433 225.512 83.5995 225.193 83.3586 224.954Z" fill="#1A2E35"/>
<path d="M120.787 239.9H114.782C114.676 239.899 114.574 239.936 114.492 240.004C114.411 240.071 114.356 240.165 114.337 240.269L113.386 245.016C113.348 245.224 113.393 245.439 113.512 245.615C113.631 245.79 113.815 245.912 114.022 245.953C114.086 245.96 114.15 245.96 114.214 245.953C116.307 245.953 117.326 245.796 119.966 245.796C121.587 245.796 126.122 245.96 128.386 245.96C130.65 245.96 130.876 243.744 129.953 243.545C125.849 242.642 123.024 241.404 121.676 240.214C121.428 240.004 121.112 239.892 120.787 239.9Z" fill="#1A2E35"/>
<path d="M122.374 228.402L121.293 235.214L116.04 234.332L117.046 228.012L122.374 228.402Z" fill="#BE9A96"/>
<path d="M85.4581 213.579L89.9793 216.425L86.6483 220.378L82.0244 217.649L85.4581 213.579Z" fill="#BE9A96"/>
<path d="M119.152 116.916L140.452 121.068C151.458 91.2661 149.064 90.288 149.064 90.288C147.516 89.4367 145.917 88.6828 144.276 88.0308L143.988 87.9214C142.62 87.422 142.347 87.3468 140.527 86.8133C137.395 86.0677 134.474 85.4453 130.856 84.9323L130.172 84.8365C129.488 84.7544 128.865 84.686 128.236 84.6245C127.812 84.5766 127.388 84.5492 126.984 84.5219L125.616 84.4466C123.277 84.3304 121.601 84.3646 121.601 84.3646C122.251 102.976 121.198 108.318 119.152 116.916Z" fill="#1A2E35"/>
<path d="M133.933 74.2415C133.933 77.4699 133.434 83.2908 130.849 84.9461C130.849 84.9461 131.088 88.2703 136.868 89.3921C143.229 90.6301 140.52 86.8271 140.52 86.8271C137.217 85.3223 137.784 82.7641 138.879 80.4659L133.933 74.2415Z" fill="#EEC1BB"/>
<path d="M135.952 76.7795L138.879 80.4663C138.625 81.0002 138.415 81.5538 138.25 82.1216C136.957 81.6701 135.418 79.8644 135.514 78.4485C135.556 77.87 135.704 77.3042 135.952 76.7795Z" fill="#BE9A96"/>
<path d="M133.626 66.827C132.942 72.0869 132.525 74.2963 134.632 77.4769C137.798 82.2649 144.406 81.9571 146.656 77.0117C148.708 72.5589 149.474 64.6997 144.789 61.6559C143.996 61.1324 143.108 60.7701 142.176 60.5898C141.243 60.4096 140.284 60.4149 139.353 60.6055C138.423 60.796 137.539 61.1681 136.752 61.7005C135.965 62.2328 135.291 62.915 134.768 63.7079C134.153 64.646 133.762 65.7133 133.626 66.827Z" fill="#EEC1BB"/>
<path d="M150.747 58.4956C150.843 59.3297 150.78 60.1745 150.562 60.9853C150.513 60.7102 150.446 60.4383 150.363 60.1714C148.489 53.9743 140.049 55.4518 137.504 58.1194C133.4 56.9429 129.495 57.88 130.014 62.9074C130.079 64.2026 130.546 65.4456 131.348 66.4642C130.712 68.2289 131.348 71.0401 133.448 71.1222C136.403 71.2385 139.207 67.326 140.336 65.1783C142.388 65.5271 145.343 65.8623 147.586 65.3151C147.963 65.5408 148.27 65.6981 148.27 65.6981C150.658 64.419 152.477 63.181 150.747 58.4956Z" fill="#1A2E35"/>
<path d="M131.807 70.4181C131.724 71.4386 132.046 72.4506 132.703 73.2362C133.592 74.269 134.755 73.6603 135.172 72.4359C135.521 71.3278 135.473 69.4605 134.283 68.8791C134.076 68.782 133.852 68.7266 133.624 68.716C133.396 68.7054 133.168 68.7398 132.954 68.8173C132.739 68.8948 132.542 69.0138 132.373 69.1676C132.204 69.3214 132.068 69.507 131.971 69.7136C131.868 69.9347 131.812 70.1745 131.807 70.4181Z" fill="#EEC1BB"/>
<path d="M140.131 121.068C140.131 121.068 140.213 163.353 136.752 179.277C133.154 195.843 122.573 233.532 122.573 233.532L114.912 232.54C114.912 232.54 120.911 194.469 123.462 178.005C126.246 160.063 124.543 118.031 124.543 118.031L140.131 121.068Z" fill="#581CD8"/>
<path opacity="0.3" d="M140.131 121.068C140.131 121.068 140.213 163.353 136.752 179.277C133.154 195.843 122.573 233.532 122.573 233.532L114.912 232.54C114.912 232.54 120.911 194.469 123.462 178.005C126.246 160.063 124.543 118.031 124.543 118.031L140.131 121.068Z" fill="black"/>
<path d="M123.879 234.195L113.599 232.868L114.036 229.229L125.705 230.597L123.879 234.195Z" fill="#1A2E35"/>
<path d="M134.829 119.974C134.829 119.974 123.359 154.919 117.661 175.049C111.655 196.288 88.6319 219.776 88.6319 219.776L82.0312 215.959C82.0312 215.959 97.7633 193.661 103.543 173.846C115.315 133.62 110.479 125.097 119.152 116.916L134.829 119.974Z" fill="#581CD8"/>
<path opacity="0.3" d="M134.829 119.974C134.829 119.974 123.359 154.919 117.661 175.049C111.655 196.288 88.6319 219.776 88.6319 219.776L82.0312 215.959C82.0312 215.959 97.7633 193.661 103.543 173.846C115.315 133.62 110.479 125.097 119.152 116.916L134.829 119.974Z" fill="black"/>
<path d="M89.7066 220.836L80.5342 215.542L82.8187 212.272L93.0035 217.888L89.7066 220.836Z" fill="#1A2E35"/>
<path d="M141.218 69.8163C141.136 70.2404 141.293 70.6234 141.574 70.6781C141.854 70.7329 142.141 70.4319 142.258 69.9941C142.374 69.5564 142.182 69.1802 141.902 69.1255C141.622 69.0707 141.3 69.3922 141.218 69.8163Z" fill="#1A2E35"/>
<path d="M145.999 70.7462C145.917 71.1703 146.075 71.5602 146.355 71.6149C146.635 71.6696 146.923 71.3687 147.005 70.9309C147.087 70.4931 146.93 70.1169 146.649 70.0691C146.369 70.0212 146.081 70.3153 145.999 70.7462Z" fill="#1A2E35"/>
<path d="M146.526 70.0757L147.6 69.9868C147.6 69.9868 146.923 70.6777 146.526 70.0757Z" fill="#1A2E35"/>
<path d="M144.597 71.2319C144.786 72.2689 145.118 73.2748 145.582 74.221C145.337 74.3358 145.069 74.3953 144.799 74.3953C144.528 74.3953 144.261 74.3358 144.016 74.221L144.597 71.2319Z" fill="#D4827D"/>
<path d="M142.224 75.5889C141.652 75.4953 141.112 75.2648 140.648 74.917C140.185 74.5692 139.813 74.1145 139.563 73.5916C139.556 73.5768 139.552 73.5608 139.552 73.5445C139.551 73.5282 139.554 73.5119 139.56 73.4967C139.565 73.4814 139.574 73.4674 139.585 73.4555C139.596 73.4436 139.61 73.4341 139.625 73.4275C139.656 73.4159 139.69 73.4165 139.72 73.4292C139.751 73.4419 139.775 73.4657 139.789 73.4959C140.028 73.9764 140.376 74.3939 140.807 74.7147C141.237 75.0356 141.736 75.2507 142.265 75.3427C142.281 75.3451 142.297 75.3509 142.311 75.3595C142.325 75.3681 142.337 75.3794 142.347 75.3928C142.356 75.4062 142.363 75.4214 142.367 75.4374C142.37 75.4535 142.37 75.4701 142.368 75.4863C142.361 75.5183 142.342 75.5467 142.316 75.5657C142.289 75.5847 142.256 75.593 142.224 75.5889Z" fill="#1A2E35"/>
<path d="M140.131 67.9968C140.065 67.9935 140.002 67.9657 139.956 67.919C139.909 67.8722 139.881 67.8097 139.878 67.7437C139.881 67.6739 139.91 67.6078 139.96 67.559C140.253 67.2835 140.608 67.0821 140.994 66.9714C141.381 66.8608 141.789 66.8441 142.183 66.9229C142.248 66.942 142.302 66.9855 142.336 67.0442C142.369 67.103 142.378 67.1723 142.361 67.2375C142.353 67.269 142.339 67.2986 142.319 67.3247C142.3 67.3507 142.275 67.3726 142.247 67.3891C142.219 67.4057 142.188 67.4165 142.156 67.421C142.124 67.4255 142.091 67.4236 142.06 67.4154C141.747 67.3598 141.425 67.3779 141.12 67.4681C140.815 67.5583 140.535 67.7182 140.302 67.9352C140.255 67.9768 140.194 67.9988 140.131 67.9968Z" fill="#1A2E35"/>
<path d="M148.654 68.9472C148.603 68.9478 148.554 68.9331 148.513 68.905C148.471 68.8768 148.439 68.8367 148.421 68.7899C148.303 68.4969 148.118 68.2352 147.882 68.0252C147.646 67.8152 147.365 67.6626 147.06 67.5792C147.027 67.5735 146.996 67.5613 146.968 67.5433C146.939 67.5254 146.915 67.5021 146.896 67.4748C146.877 67.4475 146.864 67.4166 146.856 67.3841C146.849 67.3515 146.849 67.3179 146.855 67.2851C146.868 67.2197 146.906 67.1619 146.961 67.1237C147.015 67.0855 147.083 67.0698 147.149 67.0799C147.539 67.1774 147.9 67.3666 148.202 67.6319C148.505 67.8973 148.739 68.231 148.886 68.6052C148.9 68.6357 148.907 68.6687 148.908 68.7021C148.909 68.7355 148.903 68.7687 148.891 68.7999C148.879 68.8311 148.861 68.8595 148.838 68.8836C148.814 68.9077 148.787 68.927 148.756 68.9404L148.654 68.9472Z" fill="#1A2E35"/>
<path d="M141.793 73.5645C141.581 73.5653 141.372 73.5169 141.182 73.4231C140.992 73.3294 140.827 73.1928 140.699 73.0241C140.377 72.5224 140.162 71.9597 140.068 71.3712C139.974 70.7827 140.002 70.1812 140.151 69.6041C140.541 67.4427 141.896 65.6848 143.175 65.6848C143.387 65.6879 143.597 65.7386 143.787 65.8333C143.978 65.928 144.145 66.0642 144.276 66.232C144.598 66.7337 144.812 67.2964 144.906 67.8849C145 68.4734 144.972 69.075 144.823 69.652C144.433 71.8135 143.072 73.5645 141.793 73.5645ZM143.161 65.8763C141.964 65.8763 140.678 67.5727 140.302 69.652C140.062 71.02 140.254 72.2512 140.815 72.9147C140.928 73.0627 141.074 73.1828 141.242 73.2658C141.409 73.3488 141.593 73.3925 141.779 73.3935C142.983 73.3935 144.262 71.704 144.638 69.6247C144.784 69.0749 144.813 68.5011 144.725 67.9394C144.636 67.3778 144.432 66.8406 144.125 66.362C144.015 66.2137 143.871 66.0929 143.706 66.0087C143.542 65.9245 143.36 65.8792 143.175 65.8763H143.161Z" fill="#F9F9F9"/>
<path d="M147.107 74.2483C146.886 74.2452 146.668 74.1918 146.47 74.0923C146.272 73.9928 146.099 73.8497 145.965 73.6737C145.658 73.2132 145.45 72.6938 145.355 72.1486C145.259 71.6033 145.278 71.0442 145.411 70.5068C145.76 68.4958 147.073 66.8679 148.338 66.8679C148.56 66.8738 148.778 66.929 148.975 67.0296C149.173 67.1302 149.345 67.2736 149.481 67.4493C149.785 67.9098 149.991 68.4281 150.086 68.9717C150.182 69.5154 150.164 70.0728 150.035 70.6094C149.693 72.6272 148.379 74.2483 147.107 74.2483ZM148.318 67.0389C147.128 67.0389 145.896 68.6053 145.582 70.541C145.459 71.0539 145.442 71.5863 145.531 72.106C145.621 72.6257 145.815 73.1219 146.102 73.5643C146.224 73.7173 146.378 73.8422 146.552 73.9307C146.727 74.0192 146.918 74.0692 147.114 74.0773C148.304 74.0773 149.542 72.5178 149.85 70.582C149.972 70.0695 149.989 69.5376 149.901 69.0182C149.813 68.4988 149.621 68.0025 149.337 67.5588C149.215 67.4045 149.062 67.2783 148.887 67.1886C148.713 67.0989 148.521 67.0478 148.325 67.0389H148.318Z" fill="#F9F9F9"/>
<path d="M84.932 227.437C84.248 227.437 83.564 226.384 83.1604 225.775C83.1469 225.755 83.1396 225.731 83.1396 225.707C83.1396 225.682 83.1469 225.658 83.1604 225.638C83.175 225.618 83.1949 225.602 83.2178 225.593C83.2407 225.583 83.2658 225.58 83.2904 225.583C83.5092 225.631 85.3902 226.042 85.6296 226.685C85.6569 226.756 85.6642 226.832 85.651 226.907C85.6377 226.982 85.6043 227.052 85.5544 227.109C85.4901 227.215 85.3983 227.301 85.2886 227.359C85.179 227.417 85.0557 227.444 84.932 227.437ZM83.5024 225.898C84.0291 226.691 84.5421 227.163 84.9114 227.184C84.9934 227.185 85.0743 227.164 85.1461 227.125C85.218 227.085 85.2785 227.028 85.3218 226.958C85.3449 226.934 85.3605 226.904 85.3666 226.871C85.3726 226.838 85.369 226.804 85.356 226.774C85.2329 226.432 84.2548 226.09 83.5024 225.898Z" fill="#581CD8"/>
<path d="M83.8104 225.898C83.6032 225.899 83.3967 225.876 83.1948 225.829C83.1742 225.822 83.1555 225.811 83.1401 225.795C83.1247 225.78 83.113 225.761 83.1059 225.74C83.0923 225.701 83.0923 225.657 83.1059 225.617C83.1537 225.576 84.2003 224.543 84.9732 224.543H85.0279C85.1236 224.55 85.2169 224.576 85.3018 224.621C85.3866 224.666 85.4611 224.728 85.5204 224.803C85.5901 224.876 85.6334 224.971 85.6433 225.071C85.6532 225.171 85.6292 225.272 85.5751 225.357C85.3562 225.727 84.4807 225.898 83.8104 225.898ZM83.5026 225.631C84.1455 225.706 85.1852 225.522 85.3973 225.214C85.4315 225.166 85.4588 225.091 85.3562 224.961C85.3205 224.91 85.2734 224.869 85.2187 224.841C85.164 224.812 85.1033 224.797 85.0416 224.797C84.4538 224.906 83.9154 225.198 83.5026 225.631Z" fill="#581CD8"/>
<path d="M122.75 240.837C122.184 240.823 121.62 240.754 121.067 240.631C121.041 240.626 121.017 240.613 120.999 240.593C120.98 240.573 120.968 240.549 120.965 240.522C120.962 240.496 120.967 240.47 120.979 240.446C120.991 240.423 121.01 240.404 121.033 240.392C121.286 240.269 123.482 239.174 124.118 239.544C124.175 239.581 124.223 239.631 124.256 239.691C124.29 239.751 124.308 239.817 124.31 239.886C124.317 240.001 124.296 240.117 124.25 240.223C124.204 240.328 124.133 240.422 124.043 240.495C123.662 240.75 123.207 240.87 122.75 240.837ZM121.498 240.467C122.668 240.659 123.55 240.611 123.892 240.317C123.951 240.267 123.997 240.203 124.027 240.132C124.056 240.061 124.069 239.983 124.063 239.906C124.065 239.881 124.059 239.855 124.047 239.832C124.035 239.809 124.017 239.79 123.995 239.776C123.653 239.578 122.435 240.043 121.498 240.46V240.467Z" fill="#581CD8"/>
<path d="M121.102 240.631H121.027C121.007 240.618 120.991 240.6 120.981 240.578C120.972 240.556 120.968 240.532 120.972 240.508C120.972 240.412 121.301 238.237 122.491 238.237H122.593C122.935 238.272 123.031 238.443 123.052 238.586C123.147 239.188 121.82 240.351 121.15 240.638L121.102 240.631ZM122.47 238.47C121.697 238.47 121.355 239.728 121.239 240.276C121.923 239.872 122.833 238.962 122.778 238.6C122.778 238.6 122.778 238.49 122.539 238.47H122.47Z" fill="#581CD8"/>
<path d="M141.745 69.1458L142.819 69.05C142.819 69.05 142.142 69.7477 141.745 69.1458Z" fill="#1A2E35"/>
<path d="M137.046 93.9409C128.154 90.5688 125.377 85.5209 125.589 84.4607L126.957 84.5428H127.224C127.565 84.5517 127.906 84.5814 128.243 84.6317C128.872 84.6864 129.522 84.7548 130.179 84.8437L130.863 84.9395C134.127 85.3366 137.359 85.9652 140.535 86.8205C141.985 87.2446 142.464 87.3814 143.271 87.6687L143.955 87.9286L144.242 88.038C144.953 89.5702 144.796 92.7029 137.046 93.9409Z" fill="#EEC1BB"/>
<path d="M137.046 93.9409C128.154 90.5688 125.377 85.5209 125.589 84.4607L126.957 84.5428H127.224C129.03 87.1078 132.983 90.6509 137.012 91.1365C140.254 90.4525 143.312 89.6728 143.284 87.6687L143.968 87.9286L144.256 88.038C144.953 89.5702 144.796 92.7029 137.046 93.9409Z" fill="#581CD8"/>
<path opacity="0.3" d="M137.046 93.9409C128.154 90.5688 125.377 85.5209 125.589 84.4607L126.957 84.5428H127.224C129.03 87.1078 132.983 90.6509 137.012 91.1365C140.254 90.4525 143.312 89.6728 143.284 87.6687L143.968 87.9286L144.256 88.038C144.953 89.5702 144.796 92.7029 137.046 93.9409Z" fill="black"/>
<path d="M119.077 115.603L117.709 117.327C117.607 117.456 117.757 117.641 118.004 117.689L140.343 122.039C140.534 122.08 140.712 122.039 140.747 121.896L141.307 120.028C141.348 119.898 141.205 119.755 140.993 119.714L119.419 115.514C119.359 115.501 119.297 115.502 119.238 115.517C119.178 115.533 119.123 115.562 119.077 115.603Z" fill="#1A2E35"/>
<path d="M121.506 118.579L120.931 118.469C120.815 118.469 120.74 118.373 120.76 118.298L121.513 115.877C121.513 115.802 121.649 115.767 121.759 115.788L122.34 115.897C122.457 115.897 122.532 116 122.511 116.068L121.759 118.496C121.732 118.537 121.693 118.567 121.647 118.582C121.601 118.597 121.551 118.596 121.506 118.579Z" fill="#581CD8"/>
<path opacity="0.3" d="M121.506 118.579L120.931 118.469C120.815 118.469 120.74 118.373 120.76 118.298L121.513 115.877C121.513 115.802 121.649 115.767 121.759 115.788L122.34 115.897C122.457 115.897 122.532 116 122.511 116.068L121.759 118.496C121.732 118.537 121.693 118.567 121.647 118.582C121.601 118.597 121.551 118.596 121.506 118.579Z" fill="black"/>
<path d="M123.024 92.6205C122.764 94.2416 122.517 96.0405 122.34 97.7231C122.162 99.4058 122.004 101.143 121.922 102.894C121.877 103.756 121.849 104.618 121.84 105.48V108.045C121.874 109.72 122.005 111.391 122.23 113.052C122.36 113.62 122.592 114.159 122.914 114.645C123.326 115.31 123.783 115.945 124.282 116.547C125.375 117.845 126.544 119.076 127.784 120.234C129.036 121.437 130.349 122.6 131.697 123.736C133.044 124.871 134.433 126 135.801 127.087L134.33 129.358C131.111 127.595 128.033 125.584 125.123 123.346C123.62 122.197 122.203 120.939 120.883 119.584C120.177 118.859 119.53 118.079 118.947 117.251C118.223 116.275 117.709 115.159 117.435 113.975L117.182 112.525C117.093 112.053 117.032 111.581 116.977 111.116C116.84 110.172 116.765 109.235 116.69 108.298C116.547 106.434 116.504 104.564 116.56 102.696C116.614 100.842 116.717 98.9954 116.902 97.1554C117.086 95.3154 117.319 93.5097 117.688 91.6082L123.024 92.6205Z" fill="#EEC1BB"/>
<path d="M118.482 85.7941C115.555 88.1607 116.252 95.1923 116.252 95.1923L126.102 98.4344C126.102 98.4344 125.651 90.329 125.172 87.4152C124.583 83.9473 121.355 83.4617 118.482 85.7941Z" fill="#1A2E35"/>
<path d="M134.597 126.65L139.05 124.994L138.366 129.228C138.366 129.228 135.138 130.391 133.482 128.9L134.597 126.65Z" fill="#EEC1BB"/>
<path d="M144.351 125.624V128.893L138.366 129.228L139.05 124.994L144.351 125.624Z" fill="#EEC1BB"/>
<path d="M138.708 121.93L138.133 121.821C138.017 121.821 137.942 121.725 137.962 121.65L138.715 119.228C138.715 119.153 138.852 119.119 138.968 119.139L139.542 119.249C139.659 119.249 139.734 119.351 139.713 119.42L138.961 121.848C138.94 121.916 138.852 121.957 138.708 121.93Z" fill="#581CD8"/>
<path opacity="0.3" d="M138.708 121.93L138.133 121.821C138.017 121.821 137.942 121.725 137.962 121.65L138.715 119.228C138.715 119.153 138.852 119.119 138.968 119.139L139.542 119.249C139.659 119.249 139.734 119.351 139.713 119.42L138.961 121.848C138.94 121.916 138.852 121.957 138.708 121.93Z" fill="black"/>
<path d="M130.111 120.248L129.529 120.138C129.413 120.138 129.338 120.043 129.365 119.967L130.117 117.546C130.117 117.471 130.247 117.437 130.364 117.457L130.945 117.566C131.054 117.566 131.137 117.669 131.109 117.737L130.357 120.166C130.336 120.248 130.227 120.282 130.111 120.248Z" fill="#581CD8"/>
<path opacity="0.3" d="M130.111 120.248L129.529 120.138C129.413 120.138 129.338 120.043 129.365 119.967L130.117 117.546C130.117 117.471 130.247 117.437 130.364 117.457L130.945 117.566C131.054 117.566 131.137 117.669 131.109 117.737L130.357 120.166C130.336 120.248 130.227 120.282 130.111 120.248Z" fill="black"/>
<path d="M86.5466 160.131L122.005 237.574C122.818 239.334 124.294 240.701 126.111 241.376C127.929 242.051 129.939 241.98 131.704 241.178L137.334 238.606L267.683 178.927C269.444 178.117 270.813 176.643 271.489 174.827C272.166 173.01 272.096 171 271.295 169.235L239.961 100.835L235.857 91.7995C235.041 90.0419 233.565 88.6774 231.749 88.0024C229.933 87.3274 227.923 87.3965 226.158 88.1948L90.1718 150.439C88.4111 151.249 87.042 152.723 86.363 154.538C85.684 156.354 85.7499 158.364 86.5466 160.131Z" fill="#581CD8"/>
<path opacity="0.1" d="M86.5466 160.131L122.005 237.574C122.818 239.334 124.294 240.701 126.111 241.376C127.929 242.051 129.939 241.98 131.704 241.178L137.334 238.606L267.683 178.927C269.444 178.117 270.813 176.643 271.489 174.827C272.166 173.01 272.096 171 271.295 169.235L239.961 100.835L235.857 91.7995C235.041 90.0419 233.565 88.6774 231.749 88.0024C229.933 87.3274 227.923 87.3965 226.158 88.1948L90.1718 150.439C88.4111 151.249 87.042 152.723 86.363 154.538C85.684 156.354 85.7499 158.364 86.5466 160.131Z" fill="white"/>
<path d="M250.225 123.211L100.939 191.559L118.411 229.72L267.696 161.372L250.225 123.211Z" fill="#581CD8"/>
<path opacity="0.3" d="M250.225 123.211L100.939 191.559L118.411 229.72L267.696 161.372L250.225 123.211Z" fill="white"/>
<path d="M244.044 140.865L149.705 184.057L155.958 197.714L250.297 154.522L244.044 140.865Z" fill="#581CD8"/>
<path opacity="0.8" d="M244.044 140.865L149.705 184.057L155.958 197.714L250.297 154.522L244.044 140.865Z" fill="white"/>
<path d="M245.115 109.304L95.71 178.276L105.116 198.651L254.521 129.68L245.115 109.304Z" fill="#581CD8"/>
<path opacity="0.3" d="M245.115 109.304L95.71 178.276L105.116 198.651L254.521 129.68L245.115 109.304Z" fill="black"/>
<path d="M106.82 161.102L137.334 238.579L267.683 178.9C269.444 178.09 270.813 176.616 271.489 174.799C272.166 172.983 272.096 170.973 271.295 169.208L239.961 100.808L110.952 151.615C109.151 152.332 107.706 153.731 106.932 155.508C106.158 157.285 106.118 159.296 106.82 161.102Z" fill="#581CD8"/>
<path d="M279.35 136.613L278.705 136.839L279.773 139.879L280.418 139.652L279.35 136.613Z" fill="#581CD8"/>
<path opacity="0.1" d="M279.35 136.613L278.705 136.839L279.773 139.879L280.418 139.652L279.35 136.613Z" fill="white"/>
<path d="M273.964 121.335L273.318 121.562L277.525 133.54L278.17 133.313L273.964 121.335Z" fill="#581CD8"/>
<path opacity="0.1" d="M273.964 121.335L273.318 121.562L277.525 133.54L278.17 133.313L273.964 121.335Z" fill="white"/>
<path d="M115.897 151.883L257.006 102.327C258.836 101.69 260.845 101.803 262.592 102.643C264.339 103.483 265.682 104.98 266.329 106.807L294.551 187.17C295.188 189.001 295.076 191.009 294.238 192.757C293.4 194.505 291.904 195.851 290.077 196.5L148.968 246.056C147.136 246.689 145.129 246.574 143.381 245.735C141.634 244.896 140.289 243.401 139.638 241.576L111.416 161.212C110.779 159.381 110.893 157.372 111.732 155.623C112.572 153.875 114.069 152.53 115.897 151.883Z" fill="#581CD8"/>
<path opacity="0.1" d="M115.897 151.883L257.006 102.327C258.836 101.69 260.845 101.803 262.592 102.643C264.339 103.483 265.682 104.98 266.329 106.807L294.551 187.17C295.188 189.001 295.076 191.009 294.238 192.757C293.4 194.505 291.904 195.851 290.077 196.5L148.968 246.056C147.136 246.689 145.129 246.574 143.381 245.735C141.634 244.896 140.289 243.401 139.638 241.576L111.416 161.212C110.779 159.381 110.893 157.372 111.732 155.623C112.572 153.875 114.069 152.53 115.897 151.883Z" fill="white"/>
<path d="M277.133 137.56L122.22 191.962L134.497 226.921L289.409 172.52L277.133 137.56Z" fill="#581CD8"/>
<path opacity="0.3" d="M277.133 137.56L122.22 191.962L134.497 226.921L289.409 172.52L277.133 137.56Z" fill="white"/>
<path d="M258.589 120.547L226.566 131.792L228.318 136.781L260.341 125.535L258.589 120.547Z" fill="#581CD8"/>
<path opacity="0.8" d="M258.589 120.547L226.566 131.792L228.318 136.781L260.341 125.535L258.589 120.547Z" fill="white"/>
<path d="M280.044 181.638L254.353 190.661L255.268 193.268L280.96 184.246L280.044 181.638Z" fill="#581CD8"/>
<path opacity="0.8" d="M280.044 181.638L254.353 190.661L255.268 193.268L280.96 184.246L280.044 181.638Z" fill="white"/>
<path d="M281.792 186.626L248.685 198.253L249.6 200.86L282.707 189.234L281.792 186.626Z" fill="#581CD8"/>
<path opacity="0.8" d="M281.792 186.626L248.685 198.253L249.6 200.86L282.707 189.234L281.792 186.626Z" fill="white"/>
<path d="M163.743 224.713L147.189 230.526L149.159 236.134L165.712 230.321L163.743 224.713Z" fill="#581CD8"/>
<path opacity="0.8" d="M163.743 224.713L147.189 230.526L149.159 236.134L165.712 230.321L163.743 224.713Z" fill="white"/>
<path d="M252.252 176.678L271.582 169.892C272.601 169.53 273.435 168.78 273.904 167.805C274.373 166.83 274.438 165.71 274.085 164.687C273.723 163.668 272.972 162.834 271.998 162.365C271.023 161.896 269.903 161.831 268.88 162.184L249.543 168.976C248.524 169.339 247.69 170.089 247.221 171.064C246.752 172.038 246.687 173.159 247.04 174.181C247.404 175.2 248.156 176.035 249.132 176.502C250.108 176.97 251.23 177.033 252.252 176.678Z" fill="#581CD8"/>
<path d="M219.14 188.305L238.476 181.513C239.488 181.149 240.316 180.402 240.783 179.434C241.249 178.466 241.318 177.353 240.973 176.335C240.609 175.317 239.858 174.484 238.884 174.017C237.909 173.549 236.789 173.485 235.768 173.839L216.438 180.631C215.419 180.993 214.584 181.744 214.115 182.718C213.647 183.693 213.582 184.813 213.934 185.836C214.304 186.849 215.057 187.675 216.031 188.137C217.005 188.599 218.122 188.66 219.14 188.305Z" fill="#581CD8"/>
<path d="M186.048 199.934L205.384 193.141C206.393 192.775 207.218 192.027 207.682 191.059C208.146 190.091 208.213 188.98 207.867 187.964C207.503 186.946 206.752 186.113 205.778 185.645C204.803 185.178 203.684 185.114 202.662 185.467L183.312 192.232C182.294 192.596 181.461 193.347 180.993 194.321C180.526 195.296 180.462 196.415 180.815 197.437C181.179 198.461 181.934 199.299 182.915 199.767C183.896 200.235 185.023 200.295 186.048 199.934Z" fill="#581CD8"/>
<path d="M152.921 211.561L172.258 204.769C173.27 204.407 174.1 203.661 174.568 202.692C175.036 201.724 175.106 200.61 174.761 199.591C174.397 198.574 173.646 197.741 172.672 197.273C171.697 196.806 170.577 196.742 169.556 197.095L150.219 203.887C149.2 204.25 148.366 205 147.897 205.975C147.428 206.949 147.363 208.07 147.716 209.092C148.085 210.105 148.838 210.932 149.812 211.394C150.786 211.856 151.903 211.916 152.921 211.561Z" fill="#581CD8"/>
<g opacity="0.8">
<path d="M252.251 176.678L271.581 169.892C272.6 169.53 273.435 168.78 273.903 167.805C274.372 166.83 274.437 165.71 274.084 164.687C273.722 163.668 272.971 162.834 271.997 162.365C271.022 161.896 269.902 161.831 268.879 162.184L249.542 168.976C248.523 169.339 247.689 170.089 247.22 171.064C246.751 172.038 246.686 173.159 247.039 174.181C247.403 175.2 248.155 176.035 249.131 176.502C250.107 176.97 251.229 177.033 252.251 176.678Z" fill="white"/>
<path d="M219.139 188.305L238.475 181.513C239.487 181.149 240.315 180.402 240.782 179.434C241.249 178.466 241.317 177.353 240.972 176.335C240.608 175.317 239.857 174.484 238.883 174.017C237.908 173.549 236.788 173.485 235.767 173.839L216.437 180.631C215.418 180.993 214.583 181.744 214.115 182.718C213.646 183.693 213.581 184.813 213.933 185.836C214.303 186.849 215.056 187.675 216.03 188.137C217.004 188.599 218.121 188.66 219.139 188.305Z" fill="white"/>
<path d="M186.047 199.934L205.383 193.141C206.392 192.775 207.217 192.027 207.681 191.059C208.145 190.091 208.212 188.98 207.866 187.964C207.502 186.946 206.751 186.113 205.777 185.645C204.802 185.178 203.683 185.114 202.661 185.467L183.311 192.232C182.293 192.596 181.46 193.347 180.992 194.321C180.525 195.296 180.461 196.415 180.814 197.437C181.178 198.461 181.933 199.299 182.914 199.767C183.895 200.235 185.022 200.295 186.047 199.934Z" fill="white"/>
<path d="M152.921 211.561L172.258 204.769C173.27 204.407 174.1 203.661 174.568 202.692C175.036 201.724 175.106 200.61 174.761 199.591C174.397 198.574 173.646 197.741 172.672 197.273C171.697 196.806 170.577 196.742 169.556 197.095L150.219 203.887C149.2 204.25 148.366 205 147.897 205.975C147.428 206.949 147.363 208.07 147.716 209.092C148.085 210.105 148.838 210.932 149.812 211.394C150.786 211.856 151.903 211.916 152.921 211.561Z" fill="white"/>
</g>
<path d="M262.3 139.579L245.094 145.621C243.633 146.134 242.864 147.734 243.377 149.196L246.963 159.405C247.476 160.867 249.077 161.635 250.538 161.122L267.743 155.08C269.205 154.567 269.973 152.966 269.46 151.505L265.875 141.295C265.362 139.834 263.761 139.065 262.3 139.579Z" fill="#581CD8"/>
<path opacity="0.3" d="M262.3 139.579L245.094 145.621C243.633 146.134 242.864 147.734 243.377 149.196L246.963 159.405C247.476 160.867 249.077 161.635 250.538 161.122L267.743 155.08C269.205 154.567 269.973 152.966 269.46 151.505L265.875 141.295C265.362 139.834 263.761 139.065 262.3 139.579Z" fill="black"/>
<path d="M158.469 158.552C158.04 157.326 157.373 156.196 156.507 155.228C155.641 154.259 154.593 153.471 153.422 152.908C152.251 152.345 150.981 152.019 149.684 151.947C148.387 151.876 147.088 152.061 145.863 152.491L131.964 157.71L131.786 157.758L131.375 157.929L131.122 158.025C128.878 159.038 127.11 160.877 126.187 163.16C125.263 165.443 125.254 167.993 126.162 170.282C127.069 172.571 128.824 174.423 131.061 175.452C133.298 176.481 135.845 176.609 138.174 175.809L151.335 171.431C151.714 171.347 152.088 171.241 152.456 171.117C152.729 171.021 152.996 170.912 153.257 170.788C155.493 169.764 157.267 167.942 158.231 165.679C159.195 163.416 159.28 160.874 158.469 158.552Z" fill="#581CD8"/>
<path opacity="0.8" d="M158.469 158.552C158.04 157.326 157.373 156.196 156.507 155.228C155.641 154.259 154.593 153.471 153.422 152.908C152.251 152.345 150.981 152.019 149.684 151.947C148.387 151.876 147.088 152.061 145.863 152.491L131.964 157.71L131.786 157.758L131.375 157.929L131.122 158.025C128.878 159.038 127.11 160.877 126.187 163.16C125.263 165.443 125.254 167.993 126.162 170.282C127.069 172.571 128.824 174.423 131.061 175.452C133.298 176.481 135.845 176.609 138.174 175.809L151.335 171.431C151.714 171.347 152.088 171.241 152.456 171.117C152.729 171.021 152.996 170.912 153.257 170.788C155.493 169.764 157.267 167.942 158.231 165.679C159.195 163.416 159.28 160.874 158.469 158.552Z" fill="white"/>
</g>
<defs>
<clipPath id="clip0_24003_1378">
<rect width="342" height="255" fill="white"/>
</clipPath>
</defs>
</svg>
