<svg width="259" height="193" viewBox="0 0 259 193" fill="none" xmlns="http://www.w3.org/2000/svg">
<g clip-path="url(#clip0_24003_534)">
<path d="M259 169.608H0V169.738H259V169.608Z" fill="#E6E6E6"/>
<path d="M195.628 175.094H177.809V175.223H195.628V175.094Z" fill="#E6E6E6"/>
<path d="M57.5187 175.156H47.4902V175.285H57.5187V175.156Z" fill="#E6E6E6"/>
<path d="M130.018 174.855H109.691V174.985H130.018V174.855Z" fill="#E6E6E6"/>
<path d="M109.174 173.012H100.088V173.141H109.174V173.012Z" fill="#E6E6E6"/>
<path d="M219.922 173.073H192.474V173.203H219.922V173.073Z" fill="#E6E6E6"/>
<path d="M122.766 146.507H22.7456C21.962 146.505 21.211 146.193 20.6575 145.639C20.1039 145.084 19.793 144.333 19.793 143.549V2.95709C19.7998 2.17808 20.1137 1.43322 20.6665 0.884294C21.2194 0.335373 21.9665 0.0267251 22.7456 0.0253906H122.766C123.551 0.0253906 124.303 0.336994 124.858 0.891651C125.412 1.44631 125.724 2.19858 125.724 2.98299V143.549C125.724 144.333 125.412 145.086 124.858 145.64C124.303 146.195 123.551 146.507 122.766 146.507ZM22.7456 0.128985C21.9964 0.130357 21.2783 0.428921 20.749 0.959145C20.2197 1.48937 19.9225 2.20793 19.9225 2.95709V143.549C19.9225 144.298 20.2197 145.017 20.749 145.547C21.2783 146.077 21.9964 146.376 22.7456 146.377H122.766C123.516 146.376 124.234 146.077 124.765 145.547C125.295 145.017 125.593 144.299 125.594 143.549V2.95709C125.593 2.20745 125.295 1.4889 124.765 0.958829C124.234 0.428753 123.516 0.130354 122.766 0.128985H22.7456Z" fill="#E6E6E6"/>
<path d="M234.815 146.507H134.789C134.005 146.505 133.253 146.193 132.699 145.639C132.144 145.085 131.832 144.333 131.831 143.549V2.95709C131.839 2.17761 132.154 1.43275 132.708 0.88397C133.262 0.335192 134.009 0.0267106 134.789 0.0253906H234.815C235.593 0.0280864 236.339 0.337336 236.89 0.886112C237.442 1.43489 237.755 2.17897 237.762 2.95709V143.549C237.762 144.332 237.452 145.082 236.899 145.637C236.347 146.191 235.597 146.504 234.815 146.507ZM134.789 0.128985C134.039 0.130354 133.321 0.428753 132.79 0.958829C132.26 1.4889 131.962 2.20745 131.961 2.95709V143.549C131.962 144.299 132.26 145.017 132.79 145.547C133.321 146.077 134.039 146.376 134.789 146.377H234.815C235.564 146.376 236.283 146.077 236.813 145.547C237.343 145.017 237.642 144.299 237.643 143.549V2.95709C237.642 2.20745 237.343 1.4889 236.813 0.958829C236.283 0.428753 235.564 0.130354 234.815 0.128985H134.789Z" fill="#E6E6E6"/>
<path d="M219.129 9.67529H148.536V91.9286H219.129V9.67529Z" fill="#E0E0E0"/>
<path d="M221.046 9.67529H149.433V91.9286H221.046V9.67529Z" fill="#F5F5F5"/>
<path d="M219.129 91.9233H148.536V96.5333H219.129V91.9233Z" fill="#E0E0E0"/>
<path d="M229.821 91.9233H162.403V96.5333H229.821V91.9233Z" fill="#F5F5F5"/>
<path d="M218.363 88.4379V13.1616L152.121 13.1616V88.4379H218.363Z" fill="#FAFAFA"/>
<path d="M161.647 88.4379L177.415 13.1616H198.084L182.316 88.4379H161.647Z" fill="white"/>
<path d="M185.661 88.4379L201.424 13.1616H210.758L194.995 88.4379H185.661Z" fill="white"/>
<path d="M146.521 9.55613V38.842H154.291C154.291 38.842 168.21 29.7621 171.385 11.079C171.461 10.634 171.438 10.178 171.319 9.7427C171.2 9.30737 170.988 8.90313 170.697 8.55808C170.407 8.21304 170.044 7.93547 169.635 7.74467C169.226 7.55386 168.781 7.45439 168.329 7.45318H148.645C148.368 7.45113 148.092 7.50398 147.835 7.60868C147.578 7.71339 147.344 7.86788 147.146 8.06329C146.949 8.25871 146.792 8.49119 146.685 8.74737C146.578 9.00356 146.522 9.27841 146.521 9.55613Z" fill="#E0E0E0"/>
<path d="M146.521 85.7856V41.2041H154.291C154.291 41.2041 158.746 50.2064 163.186 60.5554C164.366 63.3089 164.845 66.3124 164.579 69.2965C164.312 72.2806 163.309 75.1519 161.66 77.6528C160.01 80.1537 157.765 82.206 155.127 83.6254C152.488 85.0449 149.538 85.7871 146.542 85.7856H146.521Z" fill="#E0E0E0"/>
<path d="M154.043 38.8418H146.806C146.377 38.8418 146.029 39.1897 146.029 39.6187V40.4268C146.029 40.8559 146.377 41.2037 146.806 41.2037H154.043C154.472 41.2037 154.82 40.8559 154.82 40.4268V39.6187C154.82 39.1897 154.472 38.8418 154.043 38.8418Z" fill="#F5F5F5"/>
<path d="M223.258 9.55618V38.8421H215.488C215.488 38.8421 201.564 29.7621 198.394 11.079C198.319 10.6345 198.341 10.1789 198.46 9.74398C198.578 9.30902 198.79 8.90505 199.08 8.5601C199.371 8.21514 199.733 7.93747 200.141 7.74634C200.549 7.5552 200.994 7.45519 201.445 7.45323H221.129C221.407 7.45049 221.683 7.50283 221.941 7.60723C222.199 7.71162 222.434 7.86601 222.631 8.06149C222.829 8.25697 222.987 8.48968 223.094 8.74621C223.202 9.00274 223.257 9.27802 223.258 9.55618Z" fill="#E0E0E0"/>
<path d="M223.309 85.7958V41.2144H215.539C215.539 41.2144 211.085 50.2115 206.64 60.5656C205.468 63.32 204.995 66.3218 205.265 69.3032C205.536 72.2846 206.54 75.1526 208.189 77.6513C209.838 80.15 212.079 82.2015 214.714 83.6227C217.349 85.0438 220.295 85.7905 223.289 85.7958H223.309Z" fill="#E0E0E0"/>
<path d="M215.721 41.2041H222.957C223.387 41.2041 223.734 40.8562 223.734 40.4271V39.6191C223.734 39.19 223.387 38.8422 222.957 38.8422H215.721C215.292 38.8422 214.944 39.19 214.944 39.6191V40.4271C214.944 40.8562 215.292 41.2041 215.721 41.2041Z" fill="#F5F5F5"/>
<path d="M104.061 45.9121H72.9658V79.9478H104.061V45.9121Z" fill="#E0E0E0"/>
<path d="M108.433 45.9121H74.6494V79.9478H108.433V45.9121Z" fill="#FAFAFA"/>
<path d="M104.946 76.4674V49.3984H78.1294V76.4674H104.946Z" fill="white"/>
<path d="M84.4336 62.9327C84.435 61.2371 85.1096 59.6113 86.3091 58.4128C87.5087 57.2143 89.1351 56.541 90.8309 56.541H92.2709C93.9658 56.5424 95.5909 57.2162 96.7893 58.4146C97.9878 59.613 98.6617 61.238 98.6631 62.9327C98.6631 63.7721 98.4977 64.6033 98.1765 65.3787C97.8552 66.1542 97.3844 66.8588 96.7908 67.4524C96.1973 68.0459 95.4926 68.5167 94.7171 68.8379C93.9416 69.1591 93.1104 69.3245 92.2709 69.3245H90.8309C89.991 69.3251 89.1593 69.1603 88.3831 68.8394C87.607 68.5185 86.9017 68.0478 86.3076 67.4542C85.7135 66.8606 85.2422 66.1558 84.9207 65.3799C84.5991 64.6041 84.4336 63.7725 84.4336 62.9327Z" fill="#F5F5F5"/>
<path d="M47.7809 54.0343C43.4533 54.0343 39.303 52.3153 36.243 49.2555C33.183 46.1956 31.4639 42.0456 31.4639 37.7183C31.4639 33.3911 33.183 29.241 36.243 26.1812C39.303 23.1213 43.4533 21.4023 47.7809 21.4023H50.7283V54.0343H47.7809Z" fill="#E0E0E0"/>
<path d="M50.7275 54.0346C59.7334 54.0346 67.0342 46.7343 67.0342 37.729C67.0342 28.7236 59.7334 21.4233 50.7275 21.4233C41.7216 21.4233 34.4209 28.7236 34.4209 37.729C34.4209 46.7343 41.7216 54.0346 50.7275 54.0346Z" fill="#FAFAFA"/>
<path d="M50.728 50.0252C57.5196 50.0252 63.0253 44.5199 63.0253 37.7287C63.0253 30.9375 57.5196 25.4321 50.728 25.4321C43.9364 25.4321 38.4307 30.9375 38.4307 37.7287C38.4307 44.5199 43.9364 50.0252 50.728 50.0252Z" fill="white"/>
<path d="M55.7938 42.3282L49.7539 38.1119L51.6705 28.7988L53.3799 29.151L51.6964 37.3401L56.7935 40.8934L55.7938 42.3282Z" fill="#E0E0E0"/>
<path d="M182.513 111.389H160.285V171.442H182.513V111.389Z" fill="#E0E0E0"/>
<path d="M176.576 171.443H182.512V161.498H170.354L176.576 171.443Z" fill="#FAFAFA"/>
<path d="M49.2567 111.389H27.0293V171.442H49.2567V111.389Z" fill="#E0E0E0"/>
<path d="M182.517 111.389H44.0762V168.018H182.517V111.389Z" fill="#FAFAFA"/>
<path d="M50.0125 171.443H44.0762V161.498H56.2336L50.0125 171.443Z" fill="#FAFAFA"/>
<path d="M177.912 116.257H48.6816V137.1H177.912V116.257Z" fill="#F0F0F0"/>
<path d="M177.912 142.141H48.6816V162.984H177.912V142.141Z" fill="#F0F0F0"/>
<path d="M158.964 116.257H48.6816V137.1H158.964V116.257Z" fill="#E0E0E0"/>
<path d="M82.6422 119.07H75.9341C75.9341 119.07 77.0996 123.095 77.0996 125.462C77.0996 127.829 71.9973 137.106 79.2907 137.106C86.5842 137.106 81.4767 127.829 81.4767 125.462C81.4767 123.095 82.6422 119.07 82.6422 119.07Z" fill="#FAFAFA"/>
<path d="M56.2344 126.062V129.725C56.2344 133.785 60.1608 137.106 64.9575 137.106H69.2828C74.0795 137.106 78.0059 133.785 78.0059 129.725V126.062H56.2344Z" fill="#F0F0F0"/>
<path d="M158.964 142.141H48.6816V162.984H158.964V142.141Z" fill="#E0E0E0"/>
<path d="M110.619 162.605H120.948V145.404H110.619V162.605Z" fill="white"/>
<path d="M119.337 162.875H120.041V145.673H119.337V162.875Z" fill="#E6E6E6"/>
<path d="M120.093 163.004H121.896C122.033 163.004 122.145 162.893 122.145 162.755V145.787C122.145 145.649 122.033 145.538 121.896 145.538H120.093C119.956 145.538 119.845 145.649 119.845 145.787V162.755C119.845 162.893 119.956 163.004 120.093 163.004Z" fill="#EBEBEB"/>
<path d="M119.845 153.608H122.145V149.527H119.845V153.608Z" fill="white"/>
<path d="M119.845 157.384H122.145V154.866H119.845V157.384Z" fill="white"/>
<path d="M110.09 163.004H119.399C119.536 163.004 119.647 162.893 119.647 162.755V145.787C119.647 145.649 119.536 145.538 119.399 145.538H110.09C109.953 145.538 109.842 145.649 109.842 145.787V162.755C109.842 162.893 109.953 163.004 110.09 163.004Z" fill="#EBEBEB"/>
<path d="M105.579 162.564H116.975V143.586H105.579V162.564Z" fill="white"/>
<path d="M115.209 162.859H115.98V143.881H115.209V162.859Z" fill="#E6E6E6"/>
<path d="M116.037 163.004H118.026C118.178 163.004 118.301 162.881 118.301 162.729V144.01C118.301 143.858 118.178 143.735 118.026 143.735H116.037C115.885 143.735 115.763 143.858 115.763 144.01V162.729C115.763 162.881 115.885 163.004 116.037 163.004Z" fill="#F0F0F0"/>
<path d="M115.763 150.531H118.301V149.873H115.763V150.531Z" fill="white"/>
<path d="M115.763 152.438H118.301V151.78H115.763V152.438Z" fill="white"/>
<path d="M115.763 154.339H118.301V153.681H115.763V154.339Z" fill="white"/>
<path d="M105.004 163.004H115.27C115.422 163.004 115.545 162.881 115.545 162.729V144.01C115.545 143.858 115.422 143.735 115.27 143.735H105.004C104.852 143.735 104.729 143.858 104.729 144.01V162.729C104.729 162.881 104.852 163.004 105.004 163.004Z" fill="#F0F0F0"/>
<path d="M91.5413 156.395C91.5423 156.973 91.3718 157.538 91.0514 158.019C90.731 158.5 90.2751 158.875 89.7414 159.097C89.2076 159.319 88.62 159.378 88.053 159.266C87.4859 159.154 86.9649 158.876 86.5558 158.467C86.1467 158.059 85.8679 157.539 85.7548 156.972C85.6416 156.405 85.6992 155.817 85.9201 155.283C86.1411 154.749 86.5156 154.292 86.9961 153.971C87.4767 153.65 88.0417 153.479 88.6198 153.479C89.3937 153.479 90.136 153.786 90.6838 154.332C91.2315 154.879 91.5399 155.621 91.5413 156.395Z" fill="#FAFAFA"/>
<path d="M86.5629 157.788C86.5629 158.24 86.4289 158.682 86.1779 159.057C85.9269 159.433 85.5701 159.726 85.1527 159.898C84.7353 160.071 84.276 160.117 83.8329 160.028C83.3897 159.94 82.9827 159.723 82.6632 159.403C82.3437 159.084 82.1262 158.677 82.038 158.234C81.9499 157.791 81.9951 157.331 82.168 156.914C82.3409 156.497 82.6337 156.14 83.0094 155.889C83.3851 155.638 83.8267 155.504 84.2785 155.504C84.884 155.505 85.4642 155.746 85.8923 156.174C86.3204 156.603 86.5615 157.183 86.5629 157.788Z" fill="#FAFAFA"/>
<path d="M96.5393 157.789C96.5393 158.366 96.368 158.931 96.047 159.412C95.726 159.892 95.2697 160.266 94.7358 160.487C94.202 160.709 93.6146 160.766 93.0478 160.654C92.4811 160.541 91.9606 160.263 91.552 159.854C91.1434 159.446 90.8652 158.925 90.7524 158.358C90.6397 157.792 90.6976 157.204 90.9187 156.671C91.1398 156.137 91.5143 155.681 91.9947 155.36C92.4751 155.039 93.04 154.867 93.6178 154.867C94.3922 154.869 95.1345 155.177 95.6821 155.724C96.2297 156.272 96.538 157.014 96.5393 157.789Z" fill="#FAFAFA"/>
<path d="M101.325 156.934C101.325 157.511 101.154 158.076 100.833 158.557C100.512 159.037 100.056 159.411 99.522 159.633C98.9881 159.854 98.4007 159.911 97.834 159.799C97.2673 159.686 96.7467 159.408 96.3381 158.999C95.9295 158.591 95.6513 158.07 95.5386 157.503C95.4258 156.937 95.4837 156.349 95.7048 155.816C95.9259 155.282 96.3004 154.826 96.7808 154.505C97.2613 154.184 97.8261 154.012 98.4039 154.012C99.1788 154.012 99.9219 154.32 100.47 154.868C101.018 155.416 101.325 156.159 101.325 156.934Z" fill="#FAFAFA"/>
<path d="M76.2393 157.312C76.2393 157.312 76.6381 163.009 92.0072 163.009C107.376 163.009 107.775 157.312 107.775 157.312H76.2393Z" fill="#F5F5F5"/>
<path d="M119.337 131.408C119.337 131.408 119.974 137.106 144.33 137.106C168.687 137.106 169.319 131.408 169.319 131.408H119.337Z" fill="white"/>
<path d="M129.499 193C184.968 193 229.935 190.375 229.935 187.137C229.935 183.899 184.968 181.273 129.499 181.273C74.0307 181.273 29.0645 183.899 29.0645 187.137C29.0645 190.375 74.0307 193 129.499 193Z" fill="#F5F5F5"/>
<path d="M76.1052 109.485C87.0613 98.5301 87.0613 80.7678 76.1052 69.8124C65.1491 58.8569 47.3857 58.8569 36.4296 69.8124C25.4735 80.7678 25.4735 98.5301 36.4296 109.485C47.3857 120.441 65.1491 120.441 76.1052 109.485Z" fill="#581CD8"/>
<path opacity="0.4" d="M76.1052 109.485C87.0613 98.5301 87.0613 80.7678 76.1052 69.8124C65.1491 58.8569 47.3857 58.8569 36.4296 69.8124C25.4735 80.7678 25.4735 98.5301 36.4296 109.485C47.3857 120.441 65.1491 120.441 76.1052 109.485Z" fill="black"/>
<path opacity="0.2" d="M79.4927 93.61C81.6804 80.7849 73.0566 68.6148 60.2307 66.4271C47.4049 64.2395 35.234 72.8629 33.0462 85.6879C30.8585 98.5129 39.4823 110.683 52.3082 112.871C65.134 115.058 77.3049 106.435 79.4927 93.61Z" fill="black"/>
<path d="M80.6186 91.9046C81.4929 79.4149 72.0762 68.5814 59.5858 67.7071C47.0954 66.8328 36.2612 76.2489 35.3868 88.7385C34.5125 101.228 43.9292 112.062 56.4196 112.936C68.91 113.81 79.7442 104.394 80.6186 91.9046Z" fill="#581CD8"/>
<path opacity="0.4" d="M80.6186 91.9046C81.4929 79.4149 72.0762 68.5814 59.5858 67.7071C47.0954 66.8328 36.2612 76.2489 35.3868 88.7385C34.5125 101.228 43.9292 112.062 56.4196 112.936C68.91 113.81 79.7442 104.394 80.6186 91.9046Z" fill="black"/>
<path d="M65.5839 87.4896L67.0602 93.8865C67.1228 94.1307 67.134 94.3853 67.093 94.6341C67.052 94.8829 66.9597 95.1204 66.8219 95.3316C66.688 95.5475 66.5122 95.7343 66.3049 95.8811C66.0976 96.0279 65.863 96.1317 65.6149 96.1863L59.9895 97.4864L61.0255 101.988C61.0864 102.231 61.0958 102.484 61.053 102.731C61.0101 102.978 60.9161 103.214 60.7768 103.422C60.643 103.635 60.4667 103.817 60.259 103.958C60.0513 104.099 59.8167 104.195 59.5699 104.241C59.3227 104.303 59.0656 104.314 58.8138 104.275C58.562 104.236 58.3207 104.147 58.1039 104.013C57.8881 103.886 57.701 103.715 57.5547 103.512C57.4085 103.308 57.3062 103.077 57.2544 102.832L56.2184 98.2789L50.6396 99.5686C50.3991 99.6266 50.1495 99.6355 49.9056 99.5945C49.6616 99.5536 49.4285 99.4637 49.2202 99.3303C49.0038 99.2034 48.8161 99.0328 48.669 98.8295C48.5218 98.6263 48.4185 98.3946 48.3655 98.1494C48.3066 97.9073 48.2974 97.6559 48.3383 97.4102C48.3793 97.1645 48.4696 96.9296 48.6038 96.7198C48.7319 96.5053 48.9029 96.3196 49.1061 96.1743C49.3094 96.029 49.5405 95.9273 49.7849 95.8755L62.8385 92.8661L62.2272 90.2089L49.2099 93.208C48.9689 93.2694 48.718 93.2814 48.4722 93.2431C48.2265 93.2048 47.9911 93.1171 47.7802 92.9852C47.564 92.8555 47.3772 92.682 47.2318 92.476C47.0865 92.27 46.9857 92.0359 46.9359 91.7887L45.4647 85.4177C45.3515 84.928 45.4374 84.4133 45.7036 83.9869C45.9697 83.5605 46.3944 83.2573 46.8841 83.1438L52.437 81.8645L51.401 77.3581C51.341 77.1199 51.3293 76.872 51.3666 76.6291C51.404 76.3862 51.4897 76.1533 51.6186 75.9441C51.7552 75.7175 51.9386 75.5226 52.1566 75.3726C52.3746 75.2225 52.622 75.1207 52.8825 75.0739C53.1221 75.0157 53.371 75.0068 53.6141 75.0477C53.8572 75.0887 54.0894 75.1787 54.2966 75.3122C54.5094 75.443 54.6934 75.6155 54.8376 75.8194C54.9818 76.0232 55.0833 76.2542 55.1358 76.4983L56.1718 80.9995L61.8698 79.6942C62.1163 79.6345 62.3723 79.6253 62.6225 79.6671C62.8726 79.709 63.1117 79.801 63.3254 79.9376C63.5415 80.0619 63.7295 80.2296 63.8775 80.4302C64.0255 80.6308 64.1303 80.8599 64.1853 81.103C64.2944 81.604 64.2032 82.1278 63.9312 82.5624C63.6592 82.997 63.228 83.3079 62.7297 83.4287L49.6761 86.4381L50.2459 89.0797L63.2529 86.0807C63.4994 86.021 63.7554 86.0118 64.0055 86.0537C64.2557 86.0955 64.4948 86.1875 64.7084 86.3242C64.9281 86.446 65.1195 86.6128 65.2704 86.8136C65.4212 87.0144 65.528 87.2447 65.5839 87.4896Z" fill="#581CD8"/>
<g opacity="0.7">
<path d="M65.5839 87.4896L67.0602 93.8865C67.1228 94.1307 67.134 94.3853 67.093 94.6341C67.052 94.8829 66.9597 95.1204 66.8219 95.3316C66.688 95.5475 66.5122 95.7343 66.3049 95.8811C66.0976 96.0279 65.863 96.1317 65.6149 96.1863L59.9895 97.4864L61.0255 101.988C61.0864 102.231 61.0958 102.484 61.053 102.731C61.0101 102.978 60.9161 103.214 60.7768 103.422C60.643 103.635 60.4667 103.817 60.259 103.958C60.0513 104.099 59.8167 104.195 59.5699 104.241C59.3227 104.303 59.0656 104.314 58.8138 104.275C58.562 104.236 58.3207 104.147 58.1039 104.013C57.8881 103.886 57.701 103.715 57.5547 103.512C57.4085 103.308 57.3062 103.077 57.2544 102.832L56.2184 98.2789L50.6396 99.5686C50.3991 99.6266 50.1495 99.6355 49.9056 99.5945C49.6616 99.5536 49.4285 99.4637 49.2202 99.3303C49.0038 99.2034 48.8161 99.0328 48.669 98.8295C48.5218 98.6263 48.4185 98.3946 48.3655 98.1494C48.3066 97.9073 48.2974 97.6559 48.3383 97.4102C48.3793 97.1645 48.4696 96.9296 48.6038 96.7198C48.7319 96.5053 48.9029 96.3196 49.1061 96.1743C49.3094 96.029 49.5405 95.9273 49.7849 95.8755L62.8385 92.8661L62.2272 90.2089L49.2099 93.208C48.9689 93.2694 48.718 93.2814 48.4722 93.2431C48.2265 93.2048 47.9911 93.1171 47.7802 92.9852C47.564 92.8555 47.3772 92.682 47.2318 92.476C47.0865 92.27 46.9857 92.0359 46.9359 91.7887L45.4647 85.4177C45.3515 84.928 45.4374 84.4133 45.7036 83.9869C45.9697 83.5605 46.3944 83.2573 46.8841 83.1438L52.437 81.8645L51.401 77.3581C51.341 77.1199 51.3293 76.872 51.3666 76.6291C51.404 76.3862 51.4897 76.1533 51.6186 75.9441C51.7552 75.7175 51.9386 75.5226 52.1566 75.3726C52.3746 75.2225 52.622 75.1207 52.8825 75.0739C53.1221 75.0157 53.371 75.0068 53.6141 75.0477C53.8572 75.0887 54.0894 75.1787 54.2966 75.3122C54.5094 75.443 54.6934 75.6155 54.8376 75.8194C54.9818 76.0232 55.0833 76.2542 55.1358 76.4983L56.1718 80.9995L61.8698 79.6942C62.1163 79.6345 62.3723 79.6253 62.6225 79.6671C62.8726 79.709 63.1117 79.801 63.3254 79.9376C63.5415 80.0619 63.7295 80.2296 63.8775 80.4302C64.0255 80.6308 64.1303 80.8599 64.1853 81.103C64.2944 81.604 64.2032 82.1278 63.9312 82.5624C63.6592 82.997 63.228 83.3079 62.7297 83.4287L49.6761 86.4381L50.2459 89.0797L63.2529 86.0807C63.4994 86.021 63.7554 86.0118 64.0055 86.0537C64.2557 86.0955 64.4948 86.1875 64.7084 86.3242C64.9281 86.446 65.1195 86.6128 65.2704 86.8136C65.4212 87.0144 65.528 87.2447 65.5839 87.4896Z" fill="white"/>
</g>
<path d="M116.135 67.3396C123.115 59.0805 122.078 46.7271 113.818 39.7476C105.558 32.768 93.2042 33.8054 86.2243 42.0645C79.2443 50.3237 80.2817 62.6771 88.5414 69.6566C96.801 76.6361 109.155 75.5988 116.135 67.3396Z" fill="#581CD8"/>
<path opacity="0.4" d="M116.135 67.3396C123.115 59.0805 122.078 46.7271 113.818 39.7476C105.558 32.768 93.2042 33.8054 86.2243 42.0645C79.2443 50.3237 80.2817 62.6771 88.5414 69.6566C96.801 76.6361 109.155 75.5988 116.135 67.3396Z" fill="black"/>
<path opacity="0.2" d="M113.853 65.1622C119.638 58.1641 118.655 47.8013 111.656 42.0161C104.658 36.2309 94.2944 37.2141 88.5089 44.2122C82.7233 51.2102 83.7066 61.5731 90.7051 67.3583C97.7036 73.1435 108.067 72.1603 113.853 65.1622Z" fill="black"/>
<path d="M114.348 65.3345C119.642 58.4091 118.318 48.5042 111.392 43.2112C104.467 37.9183 94.5612 39.2417 89.2679 46.167C83.9746 53.0924 85.2981 62.9973 92.2239 68.2903C99.1497 73.5832 109.055 72.2598 114.348 65.3345Z" fill="#581CD8"/>
<path opacity="0.4" d="M114.348 65.3345C119.642 58.4091 118.318 48.5042 111.392 43.2112C104.467 37.9183 94.5612 39.2417 89.2679 46.167C83.9746 53.0924 85.2981 62.9973 92.2239 68.2903C99.1497 73.5832 109.055 72.2598 114.348 65.3345Z" fill="black"/>
<path d="M107.651 56.308L106.537 60.7522C106.497 60.9212 106.421 61.0799 106.316 61.2181C106.211 61.3564 106.078 61.4711 105.926 61.555C105.772 61.6485 105.601 61.71 105.423 61.7358C105.245 61.7616 105.064 61.7512 104.89 61.7053L101.01 60.7263L100.223 63.8341C100.182 64.0039 100.107 64.1635 100.002 64.3026C99.8969 64.4418 99.7638 64.5574 99.6113 64.6421C99.4644 64.7333 99.3004 64.7937 99.1295 64.8195C98.9585 64.8453 98.784 64.8361 98.6167 64.7923C98.4444 64.7518 98.2819 64.6774 98.1387 64.5733C97.9955 64.4693 97.8745 64.3377 97.7827 64.1863C97.6892 64.0385 97.6272 63.8729 97.6005 63.7001C97.5737 63.5272 97.5829 63.3507 97.6273 63.1815L98.4199 60.0219L94.5349 59.074C94.3665 59.0337 94.2081 58.9597 94.0692 58.8564C93.9303 58.7531 93.8138 58.6227 93.7268 58.4731C93.6331 58.3263 93.571 58.1617 93.5442 57.9896C93.5175 57.8175 93.5267 57.6418 93.5714 57.4735C93.6101 57.3032 93.6834 57.1426 93.7868 57.0018C93.8902 56.8611 94.0214 56.743 94.1723 56.6551C94.3213 56.5642 94.4871 56.5044 94.6599 56.4795C94.8326 56.4546 95.0086 56.465 95.1772 56.51L104.242 58.7839L104.708 56.94L95.6693 54.6713C95.5 54.6334 95.3404 54.5609 95.2004 54.4584C95.0605 54.3559 94.9432 54.2256 94.856 54.0756C94.7622 53.9279 94.7008 53.7619 94.6758 53.5887C94.6508 53.4155 94.6628 53.239 94.711 53.0707L95.8195 48.6421C95.8612 48.4733 95.936 48.3145 96.0395 48.1747C96.143 48.035 96.2732 47.9172 96.4225 47.8281C96.5719 47.739 96.7374 47.6803 96.9095 47.6556C97.0816 47.6308 97.2569 47.6404 97.4253 47.6839L101.269 48.6473L102.056 45.5395C102.094 45.3641 102.168 45.1984 102.274 45.053C102.379 44.9076 102.513 44.7855 102.668 44.6945C102.823 44.6036 102.994 44.5456 103.173 44.5243C103.351 44.503 103.532 44.5189 103.703 44.5709C103.87 44.6096 104.028 44.6825 104.165 44.785C104.302 44.8875 104.417 45.0175 104.501 45.1665C104.593 45.3142 104.653 45.479 104.679 45.6509C104.705 45.8228 104.696 45.9981 104.651 46.1662L103.864 49.274L107.801 50.2634C107.974 50.3046 108.136 50.3805 108.279 50.4865C108.421 50.5924 108.54 50.7262 108.63 50.8797C108.724 51.0252 108.787 51.1886 108.816 51.3597C108.845 51.5308 108.838 51.706 108.795 51.8742C108.752 52.0468 108.675 52.209 108.568 52.3513C108.461 52.4936 108.327 52.6132 108.174 52.703C108.021 52.7982 107.85 52.861 107.672 52.8878C107.494 52.9145 107.312 52.9045 107.138 52.8584L98.0676 50.5845L97.6118 52.4181L106.646 54.6816C106.818 54.7229 106.981 54.7988 107.123 54.9047C107.266 55.0107 107.385 55.1445 107.475 55.298C107.574 55.444 107.642 55.6097 107.672 55.7839C107.702 55.9582 107.695 56.1369 107.651 56.308Z" fill="#581CD8"/>
<g opacity="0.7">
<path d="M107.651 56.308L106.537 60.7522C106.497 60.9212 106.421 61.0799 106.316 61.2181C106.211 61.3564 106.078 61.4711 105.926 61.555C105.772 61.6485 105.601 61.71 105.423 61.7358C105.245 61.7616 105.064 61.7512 104.89 61.7053L101.01 60.7263L100.223 63.8341C100.182 64.0039 100.107 64.1635 100.002 64.3026C99.8969 64.4418 99.7638 64.5574 99.6113 64.6421C99.4644 64.7333 99.3004 64.7937 99.1295 64.8195C98.9585 64.8453 98.784 64.8361 98.6167 64.7923C98.4444 64.7518 98.2819 64.6774 98.1387 64.5733C97.9955 64.4693 97.8745 64.3377 97.7827 64.1863C97.6892 64.0385 97.6272 63.8729 97.6005 63.7001C97.5737 63.5272 97.5829 63.3507 97.6273 63.1815L98.4199 60.0219L94.5349 59.074C94.3665 59.0337 94.2081 58.9597 94.0692 58.8564C93.9303 58.7531 93.8138 58.6227 93.7268 58.4731C93.6331 58.3263 93.571 58.1617 93.5442 57.9896C93.5175 57.8175 93.5267 57.6418 93.5714 57.4735C93.6101 57.3032 93.6834 57.1426 93.7868 57.0018C93.8902 56.8611 94.0214 56.743 94.1723 56.6551C94.3213 56.5642 94.4871 56.5044 94.6599 56.4795C94.8326 56.4546 95.0086 56.465 95.1772 56.51L104.242 58.7839L104.708 56.94L95.6693 54.6713C95.5 54.6334 95.3404 54.5609 95.2004 54.4584C95.0605 54.3559 94.9432 54.2256 94.856 54.0756C94.7622 53.9279 94.7008 53.7619 94.6758 53.5887C94.6508 53.4155 94.6628 53.239 94.711 53.0707L95.8195 48.6421C95.8612 48.4733 95.936 48.3145 96.0395 48.1747C96.143 48.035 96.2732 47.9172 96.4225 47.8281C96.5719 47.739 96.7374 47.6803 96.9095 47.6556C97.0816 47.6308 97.2569 47.6404 97.4253 47.6839L101.269 48.6473L102.056 45.5395C102.094 45.3641 102.168 45.1984 102.274 45.053C102.379 44.9076 102.513 44.7855 102.668 44.6945C102.823 44.6036 102.994 44.5456 103.173 44.5243C103.351 44.503 103.532 44.5189 103.703 44.5709C103.87 44.6096 104.028 44.6825 104.165 44.785C104.302 44.8875 104.417 45.0175 104.501 45.1665C104.593 45.3142 104.653 45.479 104.679 45.6509C104.705 45.8228 104.696 45.9981 104.651 46.1662L103.864 49.274L107.801 50.2634C107.974 50.3046 108.136 50.3805 108.279 50.4865C108.421 50.5924 108.54 50.7262 108.63 50.8797C108.724 51.0252 108.787 51.1886 108.816 51.3597C108.845 51.5308 108.838 51.706 108.795 51.8742C108.752 52.0468 108.675 52.209 108.568 52.3513C108.461 52.4936 108.327 52.6132 108.174 52.703C108.021 52.7982 107.85 52.861 107.672 52.8878C107.494 52.9145 107.312 52.9045 107.138 52.8584L98.0676 50.5845L97.6118 52.4181L106.646 54.6816C106.818 54.7229 106.981 54.7988 107.123 54.9047C107.266 55.0107 107.385 55.1445 107.475 55.298C107.574 55.444 107.642 55.6097 107.672 55.7839C107.702 55.9582 107.695 56.1369 107.651 56.308Z" fill="white"/>
</g>
<path d="M53.4887 173.011H52.9707V178.859H53.4887V173.011Z" fill="#581CD8"/>
<path opacity="0.1" d="M53.4887 173.011H52.9707V178.859H53.4887V173.011Z" fill="black"/>
<path d="M206.03 126.679H205.512V134.692H206.03V126.679Z" fill="#581CD8"/>
<path d="M206.03 138.898H205.512V143.244H206.03V138.898Z" fill="#581CD8"/>
<path opacity="0.1" d="M206.03 126.679H205.512V134.692H206.03V126.679Z" fill="black"/>
<path opacity="0.1" d="M206.03 138.898H205.512V143.244H206.03V138.898Z" fill="black"/>
<path d="M196.425 91.9341H62.5791C58.2735 91.9341 54.7832 95.4242 54.7832 99.7295V178.072C54.7832 182.377 58.2735 185.868 62.5791 185.868H196.425C200.731 185.868 204.221 182.377 204.221 178.072V99.7295C204.221 95.4242 200.731 91.9341 196.425 91.9341Z" fill="#581CD8"/>
<path opacity="0.2" d="M196.425 91.9341H62.5791C58.2735 91.9341 54.7832 95.4242 54.7832 99.7295V178.072C54.7832 182.377 58.2735 185.868 62.5791 185.868H196.425C200.731 185.868 204.221 182.377 204.221 178.072V99.7295C204.221 95.4242 200.731 91.9341 196.425 91.9341Z" fill="black"/>
<path d="M180.031 124.644C182.596 124.644 185.056 123.625 186.869 121.812C188.683 119.998 189.702 117.538 189.702 114.974C189.702 112.409 188.683 109.949 186.869 108.136C185.056 106.322 182.596 105.303 180.031 105.303H167.547C164.982 105.303 162.522 106.322 160.709 108.136C158.895 109.949 157.876 112.409 157.876 114.974C157.876 117.538 158.895 119.998 160.709 121.812C162.522 123.625 164.982 124.644 167.547 124.644H180.031Z" fill="#581CD8"/>
<path d="M95.6948 124.638H72.6594C70.8056 124.638 69.3027 126.141 69.3027 127.995V143.052C69.3027 144.906 70.8056 146.408 72.6594 146.408H95.6948C97.5487 146.408 99.0515 144.906 99.0515 143.052V127.995C99.0515 126.141 97.5487 124.638 95.6948 124.638Z" fill="#581CD8"/>
<path opacity="0.3" d="M95.6948 124.638H72.6594C70.8056 124.638 69.3027 126.141 69.3027 127.995V143.052C69.3027 144.906 70.8056 146.408 72.6594 146.408H95.6948C97.5487 146.408 99.0515 144.906 99.0515 143.052V127.995C99.0515 126.141 97.5487 124.638 95.6948 124.638Z" fill="white"/>
<path d="M111.634 102.925H71.6804C70.3672 102.925 69.3027 103.989 69.3027 105.3C69.3027 106.612 70.3672 107.675 71.6804 107.675H111.634C112.947 107.675 114.011 106.612 114.011 105.3C114.011 103.989 112.947 102.925 111.634 102.925Z" fill="#581CD8"/>
<path opacity="0.3" d="M111.634 102.925H71.6804C70.3672 102.925 69.3027 103.989 69.3027 105.3C69.3027 106.612 70.3672 107.675 71.6804 107.675H111.634C112.947 107.675 114.011 106.612 114.011 105.3C114.011 103.989 112.947 102.925 111.634 102.925Z" fill="white"/>
<path d="M90.7583 157.213H72.7889C70.8635 157.213 69.3027 158.774 69.3027 160.699V163.957C69.3027 165.882 70.8635 167.443 72.7889 167.443H90.7583C92.6836 167.443 94.2444 165.882 94.2444 163.957V160.699C94.2444 158.774 92.6836 157.213 90.7583 157.213Z" fill="#581CD8"/>
<path opacity="0.3" d="M90.7583 157.213H72.7889C70.8635 157.213 69.3027 158.774 69.3027 160.699V163.957C69.3027 165.882 70.8635 167.443 72.7889 167.443H90.7583C92.6836 167.443 94.2444 165.882 94.2444 163.957V160.699C94.2444 158.774 92.6836 157.213 90.7583 157.213Z" fill="white"/>
<path d="M122.575 157.213H104.605C102.68 157.213 101.119 158.774 101.119 160.699V163.957C101.119 165.882 102.68 167.443 104.605 167.443H122.575C124.5 167.443 126.061 165.882 126.061 163.957V160.699C126.061 158.774 124.5 157.213 122.575 157.213Z" fill="#581CD8"/>
<path opacity="0.3" d="M122.575 157.213H104.605C102.68 157.213 101.119 158.774 101.119 160.699V163.957C101.119 165.882 102.68 167.443 104.605 167.443H122.575C124.5 167.443 126.061 165.882 126.061 163.957V160.699C126.061 158.774 124.5 157.213 122.575 157.213Z" fill="white"/>
<path d="M154.395 157.213H136.426C134.5 157.213 132.939 158.774 132.939 160.699V163.957C132.939 165.882 134.5 167.443 136.426 167.443H154.395C156.32 167.443 157.881 165.882 157.881 163.957V160.699C157.881 158.774 156.32 157.213 154.395 157.213Z" fill="#581CD8"/>
<path opacity="0.3" d="M154.395 157.213H136.426C134.5 157.213 132.939 158.774 132.939 160.699V163.957C132.939 165.882 134.5 167.443 136.426 167.443H154.395C156.32 167.443 157.881 165.882 157.881 163.957V160.699C157.881 158.774 156.32 157.213 154.395 157.213Z" fill="white"/>
<path d="M186.21 157.213H168.241C166.316 157.213 164.755 158.774 164.755 160.699V163.957C164.755 165.882 166.316 167.443 168.241 167.443H186.21C188.136 167.443 189.697 165.882 189.697 163.957V160.699C189.697 158.774 188.136 157.213 186.21 157.213Z" fill="#581CD8"/>
<path opacity="0.3" d="M186.21 157.213H168.241C166.316 157.213 164.755 158.774 164.755 160.699V163.957C164.755 165.882 166.316 167.443 168.241 167.443H186.21C188.136 167.443 189.697 165.882 189.697 163.957V160.699C189.697 158.774 188.136 157.213 186.21 157.213Z" fill="white"/>
<path d="M151.775 57.9454C150.547 61.4106 149.185 64.7619 147.739 68.1131C146.277 71.5211 144.598 74.8324 142.715 78.027C142.461 78.4362 142.197 78.8454 141.922 79.2546L141.72 79.5602L141.446 79.9383C141.259 80.1766 141.083 80.3838 140.928 80.5858C140.275 81.3134 139.583 82.005 138.856 82.6577C137.473 83.9371 136.064 85.0973 134.639 86.242C131.78 88.5107 128.858 90.6344 125.833 92.6493L124.025 90.4065L131.64 82.9011C132.899 81.6528 134.147 80.3942 135.313 79.1355C135.888 78.5088 136.447 77.8665 136.908 77.276C137.022 77.131 137.12 76.9859 137.208 76.8616L137.317 76.6855L137.467 76.4162C137.67 76.0588 137.882 75.7117 138.079 75.344C139.664 72.3657 141.062 69.1284 142.409 65.8444C143.756 62.5605 145.051 59.2507 146.294 55.9668L151.775 57.9454Z" fill="#E4897B"/>
<path d="M153.23 55.4488C154.406 58.8881 147.496 69.004 147.496 69.004L140.896 65.3316C142.021 62.1752 143.35 59.0954 144.875 56.1118C147.185 51.7401 151.94 51.6728 153.23 55.4488Z" fill="#581CD8"/>
<path opacity="0.7" d="M153.23 55.4488C154.406 58.8881 147.496 69.004 147.496 69.004L140.896 65.3316C142.021 62.1752 143.35 59.0954 144.875 56.1118C147.185 51.7401 151.94 51.6728 153.23 55.4488Z" fill="white"/>
<path opacity="0.31" d="M153.329 55.8783C151.847 55.1687 150.143 55.7643 148.346 58.6028C146.548 61.4413 145.02 66.1807 144.854 67.5326L147.501 68.9984C147.501 68.9984 153.878 59.6543 153.329 55.8783Z" fill="#581CD8"/>
<path d="M148.76 52.8179C148.76 52.8179 143.828 64.4152 147.382 86.0093H167.921C168.174 82.8548 166.724 67.4764 170.283 52.621C168.022 52.1809 165.734 51.8902 163.435 51.7509C160.528 51.585 157.613 51.585 154.706 51.7509C152.7 51.9546 150.712 52.3113 148.76 52.8179Z" fill="#581CD8"/>
<path opacity="0.7" d="M148.76 52.8179C148.76 52.8179 143.828 64.4152 147.382 86.0093H167.921C168.174 82.8548 166.724 67.4764 170.283 52.621C168.022 52.1809 165.734 51.8902 163.435 51.7509C160.528 51.585 157.613 51.585 154.706 51.7509C152.7 51.9546 150.712 52.3113 148.76 52.8179Z" fill="white"/>
<path d="M175.194 178.009L172.153 180.734L166.356 174.704L169.402 171.98L175.194 178.009Z" fill="#E4897B"/>
<path d="M164.766 183.681H160.928L160.431 174.788H164.269L164.766 183.681Z" fill="#E4897B"/>
<path d="M166.361 174.704L169.345 177.812L172.391 175.088L169.407 171.98L166.361 174.704Z" fill="#CE6F64"/>
<path d="M164.269 174.793H160.431L160.69 179.377H164.528L164.269 174.793Z" fill="#CE6F64"/>
<path d="M147.382 86.0082C147.382 86.0082 143.337 114.01 141.959 129.248C140.85 141.477 167.294 177.937 167.294 177.937L172.407 173.125C172.407 173.125 153.096 140.436 154.582 126.824C156.022 113.642 160.902 85.9927 160.902 85.9927L147.382 86.0082Z" fill="#581CD8"/>
<path opacity="0.7" d="M147.382 86.0082C147.382 86.0082 143.337 114.01 141.959 129.248C140.85 141.477 167.294 177.937 167.294 177.937L172.407 173.125C172.407 173.125 153.096 140.436 154.582 126.824C156.022 113.642 160.902 85.9927 160.902 85.9927L147.382 86.0082Z" fill="black"/>
<path opacity="0.2" d="M154.582 126.839C155.323 120.049 156.98 109.41 158.405 100.698C157.659 99.2369 155.566 96.2793 155.566 96.2793C153.691 102.759 149.614 127.186 155.431 160.176C161.492 169.945 167.294 177.952 167.294 177.952L168.086 165.355C162.487 154.82 153.551 136.251 154.582 126.839Z" fill="black"/>
<path d="M154.685 86.0078C154.685 86.0078 154.323 115.351 154.944 126.347C155.623 138.385 159.042 178.268 159.042 178.268H166.076C166.076 178.268 165.864 139.358 166.278 127.445C166.739 114.496 167.93 86.0078 167.93 86.0078H154.685Z" fill="#581CD8"/>
<path opacity="0.7" d="M154.685 86.0078C154.685 86.0078 154.323 115.351 154.944 126.347C155.623 138.385 159.042 178.268 159.042 178.268H166.076C166.076 178.268 165.864 139.358 166.278 127.445C166.739 114.496 167.93 86.0078 167.93 86.0078H154.685Z" fill="black"/>
<path d="M160.726 183.241H165.04C165.112 183.238 165.183 183.264 165.236 183.312C165.289 183.361 165.321 183.428 165.325 183.5L165.538 186.913C165.538 187.002 165.522 187.091 165.488 187.173C165.455 187.256 165.405 187.331 165.343 187.395C165.28 187.458 165.206 187.509 165.124 187.543C165.042 187.578 164.953 187.596 164.864 187.597C163.362 187.571 162.642 187.483 160.746 187.483C159.581 187.483 154.618 187.607 153.007 187.607C151.396 187.607 151.453 186.012 152.122 185.867C155.183 185.22 158.98 184.313 160.068 183.474C160.255 183.326 160.487 183.244 160.726 183.241Z" fill="#263238"/>
<path d="M171.313 179.646L175.012 177.155C175.072 177.107 175.147 177.081 175.224 177.081C175.301 177.081 175.376 177.107 175.436 177.155L178.265 180.009C178.32 180.071 178.361 180.145 178.384 180.226C178.407 180.306 178.413 180.39 178.4 180.473C178.387 180.555 178.356 180.634 178.31 180.703C178.263 180.772 178.202 180.831 178.13 180.874C175.768 182.692 174.064 184.064 172.717 185.577C171.163 187.343 170.324 187.597 166.698 187.597C165.019 187.597 164.071 186.183 164.755 185.965C170.795 184.054 169.179 183.22 170.65 180.418C170.804 180.109 171.031 179.844 171.313 179.646Z" fill="#263238"/>
<path d="M124.896 89.9233L120.892 90.0632L121.731 93.2021C121.731 93.2021 125.916 93.575 126.289 92.3112L124.896 89.9233Z" fill="#E4897B"/>
<path d="M116.571 91.9333L119.379 93.5701L121.731 93.2024L120.891 90.0635L116.571 91.9333Z" fill="#E4897B"/>
<path opacity="0.31" d="M165.693 56.2877C165.269 58.7325 165.833 64.5752 167.931 71.3399C168.095 65.5442 168.77 59.7742 169.946 54.0967V54.0657C168.599 53.931 166.103 53.9931 165.693 56.2877Z" fill="#581CD8"/>
<path d="M162.911 41.9199C162.264 44.7273 161.533 49.8759 163.429 51.7613C163.429 51.7613 162.611 54.087 157.389 54.087C151.65 54.087 154.701 51.7613 154.701 51.7613C157.861 51.0154 157.861 48.6898 157.389 46.5091L162.911 41.9199Z" fill="#E4897B"/>
<path d="M157.244 54.0757L155.69 55.728L156.452 57.3233L157.69 57.3803L158.747 55.8575L157.244 54.0757Z" fill="#581CD8"/>
<path d="M160.663 43.7891L157.395 46.4929C157.512 47.0035 157.585 47.5234 157.612 48.0468C158.814 47.8758 160.503 46.5602 160.673 45.3067C160.765 44.8046 160.761 44.2898 160.663 43.7891Z" fill="#CE6F64"/>
<path d="M156.099 32.3993C154.136 33.0675 152.567 38.273 154.856 39.6508C157.146 41.0286 159.829 31.1303 156.099 32.3993Z" fill="#263238"/>
<path d="M164.14 38.9771C162.969 42.6028 162.472 44.7938 160.11 46.2804C159.348 46.7701 158.466 47.0422 157.561 47.0672C156.655 47.0922 155.76 46.8691 154.972 46.4221C154.184 45.9752 153.534 45.3213 153.091 44.5313C152.648 43.7412 152.429 42.8451 152.459 41.9398C152.505 38.4539 154.412 33.0878 158.426 32.4144C159.291 32.2474 160.185 32.3106 161.018 32.5977C161.851 32.8848 162.594 33.3858 163.173 34.0503C163.752 34.7149 164.145 35.5198 164.315 36.3845C164.485 37.2491 164.424 38.1431 164.14 38.9771Z" fill="#E4897B"/>
<path d="M167.04 32.917C165.869 35.7451 168.594 33.3832 167.89 36.7396C167.434 38.9255 163.487 44.1621 161.964 43.6856C160.441 43.209 160.456 39.4952 162.399 36.8691C163.518 35.3618 161.099 33.6525 155.665 33.8338C150.231 34.0151 146.947 30.9591 154.168 28.7163C154.168 28.7163 151.505 30.2702 153.085 30.7882C155.323 31.6221 169.387 27.2505 167.04 32.917Z" fill="#263238"/>
<path d="M166.004 34.2121C165.947 34.2121 167.221 33.8961 167.9 31.6221C167.9 31.6583 167.677 35.0098 166.004 34.2121Z" fill="#263238"/>
<path d="M155.835 29.2188C152.494 30.2547 153.877 31.4202 155.26 31.7103L158.431 30.4671C153.613 31.1043 155.835 29.2188 155.835 29.2188Z" fill="#263238"/>
<path d="M164.782 43.4059C164.087 44.081 163.16 44.4646 162.192 44.4781C160.912 44.4781 160.638 43.266 161.327 42.2508C161.938 41.3392 163.336 40.2411 164.466 40.7331C165.595 41.2252 165.631 42.5719 164.782 43.4059Z" fill="#E4897B"/>
<path d="M158.24 38.7752C158.162 39.0756 157.939 39.2932 157.722 39.2414C157.504 39.1896 157.426 38.915 157.504 38.6146C157.582 38.3142 157.804 38.0967 158.022 38.1536C158.24 38.2106 158.317 38.4748 158.24 38.7752Z" fill="#263238"/>
<path d="M154.821 38.0242C154.743 38.3246 154.52 38.5422 154.303 38.4904C154.085 38.4386 154.007 38.1693 154.085 37.8688C154.163 37.5684 154.38 37.3509 154.603 37.4027C154.826 37.4545 154.883 37.7238 154.821 38.0242Z" fill="#263238"/>
<path d="M155.867 38.4126C155.278 39.2512 154.581 40.0088 153.795 40.6658C153.968 40.858 154.181 41.01 154.419 41.1111C154.657 41.2122 154.914 41.26 155.173 41.2511L155.867 38.4126Z" fill="#DE5753"/>
<path d="M156.437 42.344C156.222 42.3438 156.009 42.3194 155.8 42.2715C155.777 42.2654 155.757 42.2507 155.744 42.2305C155.732 42.2103 155.728 42.186 155.732 42.1627C155.738 42.1397 155.753 42.12 155.773 42.1075C155.794 42.0949 155.818 42.0906 155.841 42.0954C156.223 42.1803 156.618 42.1779 156.999 42.0882C157.379 41.9984 157.734 41.8238 158.037 41.5774C158.055 41.5606 158.078 41.5513 158.102 41.5513C158.126 41.5513 158.15 41.5606 158.167 41.5774C158.184 41.5948 158.193 41.618 158.193 41.6422C158.193 41.6663 158.184 41.6895 158.167 41.7069C157.686 42.121 157.072 42.3472 156.437 42.344Z" fill="#263238"/>
<path d="M159.597 37.9097C159.561 37.9103 159.526 37.9003 159.497 37.8809C159.467 37.8615 159.444 37.8336 159.431 37.801C159.346 37.5932 159.212 37.4089 159.041 37.2638C158.869 37.1186 158.666 37.0168 158.447 36.967C158.423 36.9639 158.4 36.956 158.379 36.9438C158.358 36.9316 158.34 36.9154 158.325 36.8961C158.311 36.8768 158.3 36.8548 158.295 36.8314C158.289 36.808 158.288 36.7837 158.291 36.7599C158.299 36.7122 158.325 36.6693 158.363 36.6403C158.402 36.6113 158.45 36.5985 158.498 36.6045C158.777 36.6613 159.038 36.7854 159.259 36.9659C159.479 37.1464 159.652 37.378 159.762 37.6404C159.772 37.6621 159.778 37.6856 159.779 37.7095C159.78 37.7335 159.776 37.7573 159.767 37.7796C159.758 37.8019 159.745 37.8222 159.728 37.8392C159.711 37.8563 159.691 37.8697 159.669 37.8787C159.647 37.8942 159.623 37.9048 159.597 37.9097Z" fill="#263238"/>
<path d="M153.665 36.5373C153.623 36.537 153.583 36.5224 153.551 36.4959C153.514 36.4646 153.49 36.4201 153.485 36.3717C153.48 36.3233 153.495 36.2749 153.525 36.2369C153.708 36.0099 153.94 35.8278 154.204 35.7047C154.468 35.5817 154.757 35.521 155.048 35.5273C155.072 35.5293 155.095 35.5359 155.116 35.5469C155.137 35.5578 155.156 35.5729 155.172 35.5912C155.187 35.6095 155.199 35.6307 155.206 35.6535C155.213 35.6763 155.216 35.7003 155.214 35.7241C155.212 35.7482 155.206 35.7718 155.196 35.7934C155.185 35.815 155.17 35.8342 155.151 35.8497C155.133 35.8653 155.111 35.8769 155.088 35.8838C155.065 35.8907 155.041 35.8927 155.017 35.8899C154.784 35.8874 154.553 35.9385 154.343 36.039C154.133 36.1396 153.949 36.287 153.805 36.47C153.788 36.4912 153.767 36.5082 153.743 36.5199C153.718 36.5316 153.692 36.5375 153.665 36.5373Z" fill="#263238"/>
<path d="M171.277 55.2671C171.681 55.8938 172.018 56.4481 172.359 57.0489C172.701 57.6497 173.028 58.2299 173.349 58.8307C173.981 60.0272 174.577 61.2496 175.12 62.4979C176.261 65.0535 177.118 67.7267 177.674 70.4694L177.726 70.7336L177.752 70.8631L177.788 71.0806C177.832 71.3704 177.855 71.663 177.855 71.956C177.85 72.4467 177.798 72.9359 177.7 73.4167C177.525 74.2098 177.271 74.9836 176.944 75.7268C176.362 77.0291 175.669 78.2787 174.872 79.4614C173.365 81.7103 171.652 83.8138 169.754 85.7443L167.501 83.9366C168.754 81.7508 170.003 79.4821 171.049 77.26C171.563 76.1973 172.003 75.1 172.365 73.9761C172.512 73.5073 172.613 73.0249 172.665 72.5361C172.683 72.3761 172.683 72.2145 172.665 72.0544C172.665 72.0078 172.665 71.9664 172.634 71.9612C172.603 71.956 172.634 71.9612 172.634 71.9353L172.603 71.8317L172.541 71.6193C172.213 70.4768 171.824 69.3529 171.375 68.2525C170.919 67.1286 170.412 66.0097 169.878 64.8961C169.345 63.7825 168.77 62.6844 168.179 61.5863C167.889 61.0373 167.584 60.4934 167.278 59.9547L166.366 58.4008L171.277 55.2671Z" fill="#E4897B"/>
<path d="M159.368 183.904C159.11 183.93 158.851 183.858 158.643 183.702C158.584 183.637 158.543 183.558 158.523 183.473C158.503 183.388 158.505 183.299 158.529 183.215C158.541 183.158 158.566 183.105 158.603 183.061C158.64 183.017 158.688 182.982 158.741 182.961C159.213 182.774 160.295 183.52 160.42 183.603C160.435 183.613 160.447 183.627 160.454 183.644C160.46 183.661 160.461 183.679 160.456 183.696C160.453 183.714 160.446 183.73 160.434 183.743C160.421 183.756 160.406 183.765 160.389 183.769C160.054 183.849 159.712 183.895 159.368 183.904ZM158.918 183.111C158.882 183.105 158.845 183.105 158.809 183.111C158.782 183.121 158.759 183.137 158.742 183.159C158.724 183.181 158.714 183.208 158.71 183.235C158.692 183.29 158.687 183.348 158.698 183.404C158.709 183.461 158.735 183.513 158.773 183.557C158.949 183.733 159.451 183.753 160.14 183.619C159.774 183.365 159.357 183.193 158.918 183.116V183.111Z" fill="white"/>
<path d="M160.368 183.775H160.321C159.938 183.547 159.368 182.739 159.456 182.324C159.472 182.248 159.512 182.18 159.572 182.13C159.631 182.08 159.705 182.052 159.783 182.05C159.851 182.041 159.92 182.047 159.986 182.069C160.051 182.09 160.111 182.126 160.161 182.174C160.549 182.552 160.461 183.655 160.461 183.702C160.459 183.717 160.454 183.732 160.445 183.745C160.436 183.758 160.424 183.768 160.41 183.775H160.368ZM159.85 182.221H159.809C159.679 182.221 159.648 182.298 159.638 182.35C159.581 182.625 159.959 183.231 160.29 183.51C160.338 183.09 160.251 182.666 160.042 182.298C160.016 182.273 159.985 182.253 159.951 182.24C159.917 182.226 159.881 182.22 159.845 182.221H159.85Z" fill="white"/>
<path d="M168.827 181.729C168.731 181.731 168.636 181.714 168.548 181.677C168.479 181.649 168.419 181.606 168.371 181.55C168.323 181.494 168.289 181.427 168.273 181.356C168.26 181.312 168.258 181.266 168.268 181.221C168.278 181.177 168.299 181.136 168.33 181.102C168.677 180.682 170.495 180.807 170.702 180.822C170.722 180.823 170.74 180.83 170.755 180.842C170.77 180.854 170.781 180.871 170.785 180.889C170.789 180.908 170.788 180.928 170.78 180.945C170.773 180.963 170.76 180.978 170.744 180.988C170.165 181.369 169.512 181.622 168.827 181.729ZM169.925 180.972C169.288 180.972 168.62 181.034 168.47 181.216C168.461 181.23 168.457 181.246 168.457 181.262C168.457 181.279 168.461 181.295 168.47 181.309C168.479 181.354 168.498 181.396 168.527 181.431C168.556 181.466 168.593 181.494 168.636 181.511C168.926 181.63 169.578 181.433 170.402 180.993L169.925 180.972Z" fill="white"/>
<path d="M170.697 181.003C170.179 181.003 169.014 180.604 168.926 180.19C168.926 180.086 168.926 179.941 169.174 179.822C170.065 179.403 170.754 180.811 170.785 180.858C170.792 180.873 170.795 180.889 170.795 180.905C170.795 180.921 170.792 180.937 170.785 180.951C170.777 180.967 170.764 180.98 170.749 180.989C170.733 180.999 170.715 181.003 170.697 181.003ZM169.501 179.931C169.413 179.93 169.326 179.949 169.247 179.988C169.138 180.04 169.086 180.097 169.097 180.148C169.149 180.392 169.988 180.734 170.537 180.806C170.371 180.527 169.972 179.931 169.501 179.931Z" fill="white"/>
<path d="M168.527 83.0974L164.725 82.4292L166.688 86.8578C166.688 86.8578 170.174 86.8578 170.019 85.0346L168.527 83.0974Z" fill="#E4897B"/>
<path d="M161.85 84.6513L163.647 88.2304L166.667 86.8526L164.704 82.4292L161.85 84.6513Z" fill="#E4897B"/>
<path d="M172.717 172.845L166.983 178.247L165.134 176.263L171.697 170.286L172.717 172.845Z" fill="#581CD8"/>
<path opacity="0.6" d="M172.717 172.845L166.983 178.247L165.134 176.263L171.697 170.286L172.717 172.845Z" fill="white"/>
<path d="M166.357 178.269H158.757L158.338 175.601L166.724 176.015L166.357 178.269Z" fill="#581CD8"/>
<path opacity="0.6" d="M166.357 178.269H158.757L158.338 175.601L166.724 176.015L166.357 178.269Z" fill="white"/>
<path d="M170.283 52.6208C173.909 53.1388 177.623 65.7358 177.623 65.7358L169.853 70.0453C169.853 70.0453 166.698 64.0576 165.191 59.6134C163.611 54.9569 166.403 52.0511 170.283 52.6208Z" fill="#581CD8"/>
<path opacity="0.7" d="M170.283 52.6208C173.909 53.1388 177.623 65.7358 177.623 65.7358L169.853 70.0453C169.853 70.0453 166.698 64.0576 165.191 59.6134C163.611 54.9569 166.403 52.0511 170.283 52.6208Z" fill="white"/>
<path opacity="0.2" d="M157.244 54.0757L155.69 55.728L156.452 57.3233L157.69 57.3803L158.747 55.8575L157.244 54.0757Z" fill="black"/>
<path d="M156.586 57.0391C156.586 57.0391 153.639 69.2476 153.525 71.7856C153.364 75.2767 154.825 81.2385 154.825 81.2385C154.825 81.2385 156.897 76.2816 157.322 71.6768C157.747 67.0721 157.431 59.6237 157.622 57.0391H156.586Z" fill="#581CD8"/>
<path opacity="0.2" d="M156.586 57.0391C156.586 57.0391 153.639 69.2476 153.525 71.7856C153.364 75.2767 154.825 81.2385 154.825 81.2385C154.825 81.2385 156.897 76.2816 157.322 71.6768C157.747 67.0721 157.431 59.6237 157.622 57.0391H156.586Z" fill="black"/>
<path d="M157.245 54.076C157.835 55.0315 158.177 56.1195 158.24 57.2408C158.24 57.2408 164.704 54.9617 164.399 51.6209C164.399 51.6209 163.482 51.077 162.902 50.6367C162.902 50.6367 162.684 52.7397 157.245 54.076Z" fill="#581CD8"/>
<path opacity="0.6" d="M157.245 54.076C157.835 55.0315 158.177 56.1195 158.24 57.2408C158.24 57.2408 164.704 54.9617 164.399 51.6209C164.399 51.6209 163.482 51.077 162.902 50.6367C162.902 50.6367 162.684 52.7397 157.245 54.076Z" fill="white"/>
<path d="M157.245 54.076C156.651 54.9805 156.223 55.9838 155.981 57.0387C155.981 57.0387 153.054 55.0601 153.935 51.7606C154.471 51.5445 155.023 51.3713 155.587 51.2427C155.587 51.2427 155.204 53.3767 157.245 54.076Z" fill="#581CD8"/>
<path opacity="0.6" d="M157.245 54.076C156.651 54.9805 156.223 55.9838 155.981 57.0387C155.981 57.0387 153.054 55.0601 153.935 51.7606C154.471 51.5445 155.023 51.3713 155.587 51.2427C155.587 51.2427 155.204 53.3767 157.245 54.076Z" fill="white"/>
</g>
<defs>
<clipPath id="clip0_24003_534">
<rect width="259" height="193" fill="white"/>
</clipPath>
</defs>
</svg>
