<svg width="40" height="40" viewBox="0 0 40 40" fill="none" xmlns="http://www.w3.org/2000/svg">
<path d="M0 20C0 8.95431 8.95431 0 20 0C31.0457 0 40 8.95431 40 20C40 31.0457 31.0457 40 20 40C8.95431 40 0 31.0457 0 20Z" fill="#0E58E9"/>
<path d="M22.24 18.5602C21.93 19.8002 20 19.1702 19.4 19.0002L19.95 16.8202C20.57 17.0002 22.56 17.2602 22.24 18.5602ZM19.13 20.1202L18.53 22.5302C19.27 22.7202 21.56 23.4502 21.9 22.0902C22.26 20.6702 19.87 20.3002 19.13 20.1202ZM29.7 22.4202C28.36 27.7802 22.94 31.0402 17.58 29.7002C12.22 28.3602 8.963 22.9402 10.3 17.5802C11.64 12.2202 17.06 8.96416 22.42 10.3002C27.77 11.6402 31.03 17.0602 29.7 22.4202ZM22.21 16.0502L22.66 14.2502L21.56 14.0002L21.12 15.7302C20.83 15.6602 20.54 15.5902 20.24 15.5302L20.68 13.7602L19.59 13.5002L19.14 15.2902C18.9 15.2302 18.66 15.1802 18.44 15.1202L16.93 14.7402L16.63 15.9102C16.63 15.9102 17.45 16.1002 17.43 16.1102C17.88 16.2202 17.96 16.5002 17.94 16.7502L16.71 21.6802C16.66 21.8202 16.5 22.0002 16.21 21.9502C16.22 21.9602 15.41 21.7502 15.41 21.7502L14.87 23.0002L16.29 23.3602C16.56 23.4302 16.82 23.5002 17.08 23.5602L16.62 25.3802L17.72 25.6602L18.17 23.8502C18.47 23.9302 18.76 24.0002 19.04 24.0802L18.59 25.8702L19.69 26.1502L20.15 24.3302C22 24.6802 23.42 24.5402 24 22.8502C24.5 21.5002 24 20.7002 23 20.1902C23.72 20.0002 24.26 19.5502 24.41 18.5702C24.61 17.2402 23.59 16.5302 22.21 16.0502Z" fill="#FAFAFA"/>
</svg>
