<svg width="40" height="40" viewBox="0 0 40 40" fill="none" xmlns="http://www.w3.org/2000/svg">
<path d="M0 20C0 8.95431 8.95431 0 20 0C31.0457 0 40 8.95431 40 20C40 31.0457 31.0457 40 20 40C8.95431 40 0 31.0457 0 20Z" fill="#EC4B18"/>
<path d="M23 26.5C20.5 26.5 18.32 25.08 17.24 23H23L24 21H16.58C16.53 20.67 16.5 20.34 16.5 20C16.5 19.66 16.53 19.33 16.58 19H23L24 17H17.24C18.32 14.92 20.5 13.5 23 13.5C24.61 13.5 26.09 14.09 27.23 15.07L29 13.3C27.41 11.87 25.3 11 23 11C19.08 11 15.76 13.5 14.5 17H11L10 19H14.06C14 19.33 14 19.66 14 20C14 20.34 14 20.67 14.06 21H11L10 23H14.5C15.76 26.5 19.08 29 23 29C25.31 29 27.41 28.13 29 26.7L27.22 24.93C26.09 25.91 24.62 26.5 23 26.5Z" fill="#FAFAFA"/>
</svg>
