<svg width="24" height="24" viewBox="0 0 24 24" fill="none" xmlns="http://www.w3.org/2000/svg">
<g opacity="0.24">
<path d="M4.50656 9.75H19.4934C19.718 9.75114 19.9399 9.70186 20.1428 9.60579C20.3458 9.50973 20.5245 9.36933 20.666 9.19496C20.8074 9.02058 20.9079 8.81668 20.9601 8.59829C21.0122 8.37989 21.0146 8.15259 20.9672 7.93313C20.2706 4.64063 16.5 2.25 12 2.25C7.5 2.25 3.72937 4.64063 3.03281 7.93313C2.98538 8.15259 2.98782 8.37989 3.03995 8.59829C3.09208 8.81668 3.19257 9.02058 3.33401 9.19496C3.47546 9.36933 3.65424 9.50973 3.85718 9.60579C4.06012 9.70186 4.28204 9.75114 4.50656 9.75ZM12 3.75C15.7331 3.75 18.9572 5.68219 19.4934 8.25H4.50656L4.5 8.24344C5.04281 5.68219 8.26688 3.75 12 3.75ZM21.4931 14.295L17.6372 15.7013L14.1562 14.3034C13.9775 14.232 13.7781 14.232 13.5994 14.3034L10.1306 15.6919L6.65625 14.3034C6.4852 14.2351 6.29499 14.2321 6.12188 14.295L1.99687 15.795C1.82253 15.8717 1.68392 16.0119 1.60918 16.1871C1.53444 16.3624 1.52916 16.5594 1.59442 16.7384C1.65968 16.9173 1.79058 17.0648 1.96057 17.1507C2.13055 17.2367 2.32687 17.2548 2.50969 17.2013L3.75 16.7522V17.25C3.75 18.2446 4.14509 19.1984 4.84835 19.9016C5.55161 20.6049 6.50544 21 7.5 21H16.5C17.4946 21 18.4484 20.6049 19.1516 19.9016C19.8549 19.1984 20.25 18.2446 20.25 17.25V16.3434L22.0059 15.705C22.1044 15.6762 22.1959 15.6275 22.2748 15.5619C22.3537 15.4963 22.4183 15.4152 22.4646 15.3237C22.5109 15.2321 22.5379 15.132 22.544 15.0296C22.55 14.9272 22.535 14.8246 22.4999 14.7282C22.4647 14.6319 22.4102 14.5437 22.3396 14.4693C22.269 14.3948 22.1839 14.3356 22.0896 14.2953C21.9952 14.2551 21.8936 14.2346 21.791 14.2352C21.6884 14.2358 21.587 14.2574 21.4931 14.2987V14.295ZM18.75 17.25C18.75 17.8467 18.5129 18.419 18.091 18.841C17.669 19.2629 17.0967 19.5 16.5 19.5H7.5C6.90326 19.5 6.33097 19.2629 5.90901 18.841C5.48705 18.419 5.25 17.8467 5.25 17.25V16.2075L6.36281 15.8025L9.84375 17.1966C10.0225 17.268 10.2219 17.268 10.4006 17.1966L13.8694 15.8081L17.3381 17.1966C17.5092 17.2649 17.6994 17.2679 17.8725 17.205L18.7416 16.8891L18.75 17.25ZM1.5 12C1.5 11.8011 1.57902 11.6103 1.71967 11.4697C1.86032 11.329 2.05109 11.25 2.25 11.25H21.75C21.9489 11.25 22.1397 11.329 22.2803 11.4697C22.421 11.6103 22.5 11.8011 22.5 12C22.5 12.1989 22.421 12.3897 22.2803 12.5303C22.1397 12.671 21.9489 12.75 21.75 12.75H2.25C2.05109 12.75 1.86032 12.671 1.71967 12.5303C1.57902 12.3897 1.5 12.1989 1.5 12Z" fill="black"/>
</g>
</svg>
