<svg width="24" height="24" viewBox="0 0 24 24" fill="none" xmlns="http://www.w3.org/2000/svg">
<g opacity="0.24" clip-path="url(#clip0_24002_1101)">
<path d="M23.7806 12.5305L21.5306 14.7805C21.4609 14.8502 21.3782 14.9056 21.2871 14.9433C21.1961 14.981 21.0985 15.0005 20.9999 15.0005C20.9014 15.0005 20.8038 14.981 20.7127 14.9433C20.6217 14.9056 20.539 14.8502 20.4693 14.7805L18.2193 12.5305C18.0786 12.3898 17.9995 12.1989 17.9995 11.9999C17.9995 11.8009 18.0786 11.61 18.2193 11.4693C18.36 11.3285 18.5509 11.2495 18.7499 11.2495C18.949 11.2495 19.1398 11.3285 19.2806 11.4693L20.2499 12.4396V11.9999C20.2508 10.253 19.6971 8.55088 18.6687 7.1388C17.6402 5.72672 16.1901 4.67755 14.5271 4.14242C12.8642 3.6073 11.0743 3.61384 9.41537 4.16111C7.7564 4.70838 6.31397 5.76813 5.29587 7.18769C5.17975 7.34931 5.00419 7.45818 4.8078 7.49035C4.61142 7.52253 4.4103 7.47537 4.24868 7.35925C4.08706 7.24314 3.97819 7.06758 3.94602 6.87119C3.91384 6.67481 3.961 6.47368 4.07712 6.31207C5.28039 4.63443 6.98513 3.38205 8.94576 2.73533C10.9064 2.08862 13.0217 2.08096 14.987 2.71346C16.9522 3.34596 18.666 4.58597 19.8814 6.25485C21.0968 7.92373 21.751 9.93534 21.7499 11.9999V12.4396L22.7193 11.4693C22.86 11.3285 23.0509 11.2495 23.2499 11.2495C23.449 11.2495 23.6398 11.3285 23.7806 11.4693C23.9213 11.61 24.0003 11.8009 24.0003 11.9999C24.0003 12.1989 23.9213 12.3898 23.7806 12.5305ZM19.9199 17.6868C18.7163 19.3631 17.0118 20.6143 15.0518 21.2603C13.0918 21.9063 10.9774 21.9137 9.0129 21.2814C7.04842 20.6492 5.33521 19.4099 4.1199 17.742C2.90459 16.0741 2.24985 14.0636 2.24993 11.9999V11.5602L1.28055 12.5305C1.13982 12.6712 0.948952 12.7503 0.749929 12.7503C0.550906 12.7503 0.360034 12.6712 0.219304 12.5305C0.0785733 12.3898 -0.000488281 12.1989 -0.000488281 11.9999C-0.000488281 11.8009 0.0785733 11.61 0.219304 11.4693L2.4693 9.21925C2.53896 9.14952 2.62168 9.0942 2.71272 9.05646C2.80377 9.01872 2.90137 8.99929 2.99993 8.99929C3.09849 8.99929 3.19609 9.01872 3.28713 9.05646C3.37818 9.0942 3.4609 9.14952 3.53055 9.21925L5.78055 11.4693C5.92128 11.61 6.00035 11.8009 6.00035 11.9999C6.00035 12.1989 5.92128 12.3898 5.78055 12.5305C5.63982 12.6712 5.44895 12.7503 5.24993 12.7503C5.05091 12.7503 4.86003 12.6712 4.7193 12.5305L3.74993 11.5602V11.9999C3.74815 14.0194 4.49041 15.9689 5.83493 17.4758C6.6714 16.2637 7.84757 15.326 9.21555 14.7805C8.48073 14.2017 7.94452 13.4084 7.6815 12.5107C7.41847 11.6131 7.44171 10.6558 7.74798 9.77195C8.05425 8.88813 8.62832 8.12171 9.39036 7.57928C10.1524 7.03684 11.0645 6.74536 11.9999 6.74536C12.9353 6.74536 13.8475 7.03684 14.6095 7.57928C15.3715 8.12171 15.9456 8.88813 16.2519 9.77195C16.5581 10.6558 16.5814 11.6131 16.3184 12.5107C16.0553 13.4084 15.5191 14.2017 14.7843 14.7805C16.1535 15.3261 17.3305 16.2649 18.1668 17.4786C18.3564 17.2657 18.5351 17.0432 18.7021 16.8121C18.8182 16.6505 18.9938 16.5416 19.1902 16.5094C19.3866 16.4772 19.5877 16.5244 19.7493 16.6405C19.9109 16.7566 20.0198 16.9322 20.052 17.1286C20.0841 17.325 20.037 17.5261 19.9209 17.6877L19.9199 17.6868ZM11.9999 14.2499C12.5933 14.2499 13.1733 14.0739 13.6666 13.7443C14.16 13.4146 14.5445 12.9461 14.7716 12.3979C14.9986 11.8498 15.058 11.2466 14.9423 10.6646C14.8265 10.0827 14.5408 9.54812 14.1212 9.12856C13.7017 8.709 13.1671 8.42328 12.5852 8.30752C12.0033 8.19177 11.4001 8.25118 10.8519 8.47824C10.3037 8.7053 9.83516 9.08982 9.50552 9.58317C9.17588 10.0765 8.99993 10.6565 8.99993 11.2499C8.99993 12.0455 9.316 12.8086 9.87861 13.3712C10.4412 13.9338 11.2043 14.2499 11.9999 14.2499ZM11.9999 20.2499C13.8303 20.2475 15.6082 19.6378 17.0549 18.5164C16.5124 17.6679 15.7649 16.9696 14.8815 16.4859C13.9981 16.0022 13.0071 15.7486 11.9999 15.7486C10.9928 15.7486 10.0018 16.0022 9.11835 16.4859C8.23493 16.9696 7.48749 17.6679 6.94493 18.5164C8.38945 19.6418 10.1688 20.252 11.9999 20.2499Z" fill="black"/>
</g>
<defs>
<clipPath id="clip0_24002_1101">
<rect width="24" height="24" fill="white"/>
</clipPath>
</defs>
</svg>
