<svg width="24" height="24" viewBox="0 0 24 24" fill="none" xmlns="http://www.w3.org/2000/svg">
<path d="M12.75 11.2499V16.4999C12.75 16.6988 12.671 16.8896 12.5304 17.0303C12.3897 17.1709 12.199 17.2499 12 17.2499C11.8011 17.2499 11.6104 17.1709 11.4697 17.0303C11.3291 16.8896 11.25 16.6988 11.25 16.4999V11.2499C11.25 11.051 11.3291 10.8603 11.4697 10.7196C11.6104 10.579 11.8011 10.4999 12 10.4999C12.199 10.4999 12.3897 10.579 12.5304 10.7196C12.671 10.8603 12.75 11.051 12.75 11.2499ZM16.2038 11.1749L15.6788 16.4249C15.6684 16.5232 15.6776 16.6226 15.7057 16.7173C15.7339 16.8121 15.7805 16.9003 15.8429 16.977C15.9053 17.0537 15.9822 17.1172 16.0692 17.1641C16.1563 17.2109 16.2517 17.2401 16.35 17.2499C16.3753 17.2513 16.4007 17.2513 16.426 17.2499C16.6118 17.2497 16.7908 17.1805 16.9285 17.0558C17.0662 16.9311 17.1527 16.7598 17.1713 16.5749L17.6963 11.3249C17.7162 11.127 17.6566 10.9293 17.5308 10.7753C17.4049 10.6213 17.223 10.5236 17.025 10.5037C16.8271 10.4838 16.6294 10.5433 16.4754 10.6692C16.3214 10.7951 16.2237 10.977 16.2038 11.1749ZM7.7963 11.1749C7.77641 10.977 7.67871 10.7951 7.52469 10.6692C7.37068 10.5433 7.17297 10.4838 6.97505 10.5037C6.77713 10.5236 6.59522 10.6213 6.46934 10.7753C6.34345 10.9293 6.28391 11.127 6.3038 11.3249L6.8288 16.5749C6.84746 16.7606 6.93464 16.9326 7.07332 17.0574C7.212 17.1822 7.39222 17.2509 7.5788 17.2499C7.60409 17.2513 7.62944 17.2513 7.65474 17.2499C7.75274 17.2401 7.84784 17.211 7.93461 17.1644C8.02138 17.1178 8.09812 17.0546 8.16045 16.9783C8.22278 16.9021 8.26948 16.8143 8.29789 16.72C8.32629 16.6257 8.33584 16.5267 8.32599 16.4287L7.7963 11.1749ZM22.4935 8.34931L21.0807 18.9487C21.0314 19.3084 20.8538 19.6382 20.5805 19.8773C20.3073 20.1164 19.9569 20.2488 19.5938 20.2499H4.4063C4.04322 20.2488 3.69278 20.1164 3.41955 19.8773C3.14632 19.6382 2.96871 19.3084 2.91943 18.9487L1.50661 8.34931C1.49245 8.24337 1.5011 8.13562 1.53197 8.03328C1.56285 7.93095 1.61525 7.8364 1.68564 7.75597C1.75604 7.67554 1.84282 7.61109 1.94016 7.56693C2.03751 7.52277 2.14316 7.49993 2.25005 7.49994H6.40974L11.4375 1.75587C11.5079 1.67607 11.5945 1.61215 11.6915 1.56837C11.7885 1.52459 11.8936 1.50195 12 1.50195C12.1065 1.50195 12.2116 1.52459 12.3086 1.56837C12.4056 1.61215 12.4922 1.67607 12.5625 1.75587L17.5904 7.49994H21.75C21.8569 7.49993 21.9626 7.52277 22.0599 7.56693C22.1573 7.61109 22.2441 7.67554 22.3145 7.75597C22.3849 7.8364 22.4372 7.93095 22.4681 8.03328C22.499 8.13562 22.5076 8.24337 22.4935 8.34931ZM8.40286 7.49994H15.5972L12 3.389L8.40286 7.49994ZM20.8932 8.99994H3.10693L4.4063 18.7499H19.5938L20.8932 8.99994Z" fill="white"/>
</svg>
