<svg width="24" height="24" viewBox="0 0 24 24" fill="none" xmlns="http://www.w3.org/2000/svg">
<g opacity="0.24">
<path d="M22.2807 4.28063C22.3857 4.17573 22.4573 4.04204 22.4863 3.89648C22.5152 3.75092 22.5004 3.60002 22.4436 3.46291C22.3868 3.32579 22.2905 3.20861 22.1671 3.12621C22.0436 3.04381 21.8985 2.99988 21.7501 3H2.2501C2.10168 2.99988 1.95656 3.04381 1.83312 3.12621C1.70967 3.20861 1.61345 3.32579 1.55664 3.46291C1.49982 3.60002 1.48497 3.75092 1.51396 3.89648C1.54294 4.04204 1.61447 4.17573 1.71948 4.28063L11.2501 13.8103V19.5H8.2501C8.05119 19.5 7.86043 19.579 7.71977 19.7197C7.57912 19.8603 7.5001 20.0511 7.5001 20.25C7.5001 20.4489 7.57912 20.6397 7.71977 20.7803C7.86043 20.921 8.05119 21 8.2501 21H15.7501C15.949 21 16.1398 20.921 16.2804 20.7803C16.4211 20.6397 16.5001 20.4489 16.5001 20.25C16.5001 20.0511 16.4211 19.8603 16.2804 19.7197C16.1398 19.579 15.949 19.5 15.7501 19.5H12.7501V13.8103L22.2807 4.28063ZM4.06042 4.5H19.9398L18.4398 6H5.56042L4.06042 4.5ZM12.0001 12.4397L7.06042 7.5H16.9398L12.0001 12.4397Z" fill="black"/>
</g>
</svg>
