<svg width="24" height="24" viewBox="0 0 24 24" fill="none" xmlns="http://www.w3.org/2000/svg">
<g opacity="0.6">
<path d="M11.9996 7.50004C11.1095 7.50004 10.2395 7.76396 9.49949 8.25843C8.75947 8.7529 8.18269 9.4557 7.8421 10.278C7.5015 11.1002 7.41239 12.005 7.58602 12.8779C7.75965 13.7509 8.18824 14.5527 8.81757 15.182C9.44691 15.8114 10.2487 16.2399 11.1216 16.4136C11.9946 16.5872 12.8994 16.4981 13.7216 16.1575C14.5439 15.8169 15.2467 15.2401 15.7412 14.5001C16.2356 13.7601 16.4996 12.8901 16.4996 12C16.4983 10.807 16.0238 9.66308 15.1802 8.81943C14.3365 7.97579 13.1926 7.50128 11.9996 7.50004ZM11.9996 15C11.4062 15 10.8262 14.8241 10.3328 14.4945C9.8395 14.1648 9.45498 13.6963 9.22792 13.1481C9.00085 12.5999 8.94144 11.9967 9.0572 11.4148C9.17295 10.8328 9.45868 10.2983 9.87823 9.87872C10.2978 9.45917 10.8323 9.17344 11.4143 9.05769C11.9962 8.94193 12.5994 9.00134 13.1476 9.2284C13.6958 9.45547 14.1643 9.83999 14.494 10.3333C14.8236 10.8267 14.9996 11.4067 14.9996 12C14.9996 12.7957 14.6835 13.5588 14.1209 14.1214C13.5583 14.684 12.7952 15 11.9996 15ZM20.2496 12.2025C20.2533 12.0675 20.2533 11.9325 20.2496 11.7975L21.6483 10.05C21.7216 9.95829 21.7724 9.8506 21.7965 9.73563C21.8206 9.62067 21.8174 9.50165 21.7871 9.38817C21.5578 8.52623 21.2147 7.69865 20.7671 6.92723C20.7084 6.82628 20.6271 6.7404 20.5294 6.67644C20.4318 6.61248 20.3205 6.57219 20.2046 6.55879L17.9808 6.31129C17.8883 6.21379 17.7946 6.12004 17.6996 6.03004L17.4371 3.80067C17.4236 3.68462 17.3831 3.57333 17.319 3.47567C17.2549 3.37801 17.1688 3.29668 17.0677 3.23817C16.296 2.79131 15.4685 2.44864 14.6067 2.21911C14.4932 2.18891 14.3741 2.18583 14.2592 2.21009C14.1442 2.23435 14.0365 2.28529 13.9449 2.35879L12.2021 3.75004C12.0671 3.75004 11.9321 3.75004 11.7971 3.75004L10.0496 2.35411C9.9578 2.28076 9.85011 2.23 9.73514 2.2059C9.62018 2.1818 9.50116 2.18504 9.38768 2.21536C8.52588 2.44507 7.69836 2.78806 6.92674 3.23536C6.82579 3.29397 6.73992 3.37535 6.67595 3.473C6.61199 3.57065 6.5717 3.68189 6.5583 3.79786L6.3108 6.02536C6.2133 6.11848 6.11955 6.21223 6.02955 6.30661L3.80018 6.56254C3.68413 6.57605 3.57284 6.61647 3.47518 6.6806C3.37752 6.74473 3.29619 6.83079 3.23768 6.93192C2.79082 7.70363 2.44815 8.53114 2.21862 9.39286C2.18843 9.50641 2.18534 9.62547 2.2096 9.74044C2.23387 9.8554 2.2848 9.96306 2.3583 10.0547L3.74955 11.7975C3.74955 11.9325 3.74955 12.0675 3.74955 12.2025L2.35362 13.95C2.28027 14.0418 2.22951 14.1495 2.20541 14.2645C2.18131 14.3794 2.18455 14.4984 2.21487 14.6119C2.44417 15.4739 2.78718 16.3014 3.23487 17.0729C3.29349 17.1738 3.37486 17.2597 3.47251 17.3236C3.57017 17.3876 3.6814 17.4279 3.79737 17.4413L6.02112 17.6888C6.11424 17.7863 6.20799 17.88 6.30237 17.97L6.56206 20.1994C6.57556 20.3155 6.61598 20.4268 6.68011 20.5244C6.74424 20.6221 6.8303 20.7034 6.93143 20.7619C7.70315 21.2088 8.53066 21.5515 9.39237 21.781C9.50592 21.8112 9.62498 21.8143 9.73995 21.79C9.85491 21.7657 9.96257 21.7148 10.0542 21.6413L11.7971 20.25C11.9321 20.2538 12.0671 20.2538 12.2021 20.25L13.9496 21.6488C14.0413 21.7221 14.149 21.7729 14.264 21.797C14.3789 21.8211 14.4979 21.8179 14.6114 21.7875C15.4734 21.5582 16.3009 21.2152 17.0724 20.7675C17.1733 20.7089 17.2592 20.6276 17.3232 20.5299C17.3871 20.4322 17.4274 20.321 17.4408 20.205L17.6883 17.9813C17.7858 17.8888 17.8796 17.795 17.9696 17.7L20.1989 17.4375C20.315 17.424 20.4263 17.3836 20.5239 17.3195C20.6216 17.2554 20.7029 17.1693 20.7614 17.0682C21.2083 16.2965 21.551 15.4689 21.7805 14.6072C21.8107 14.4937 21.8138 14.3746 21.7895 14.2597C21.7652 14.1447 21.7143 14.037 21.6408 13.9454L20.2496 12.2025ZM18.7402 11.5932C18.7561 11.8642 18.7561 12.1359 18.7402 12.4069C18.729 12.5925 18.7871 12.7756 18.9033 12.9207L20.2336 14.5829C20.081 15.068 19.8855 15.5386 19.6496 15.9891L17.5308 16.2291C17.3463 16.2496 17.1759 16.3378 17.0527 16.4766C16.8722 16.6796 16.68 16.8718 16.4771 17.0522C16.3382 17.1755 16.25 17.3458 16.2296 17.5304L15.9942 19.6472C15.5438 19.8833 15.0732 20.0788 14.588 20.2313L12.9249 18.901C12.7918 18.7946 12.6265 18.7368 12.4561 18.7369H12.4111C12.1401 18.7529 11.8684 18.7529 11.5974 18.7369C11.4118 18.7257 11.2287 18.7839 11.0836 18.9L9.41674 20.2313C8.93162 20.0786 8.46102 19.8832 8.01049 19.6472L7.77049 17.5313C7.75001 17.3468 7.66182 17.1764 7.52299 17.0532C7.32003 16.8727 7.12783 16.6805 6.94737 16.4775C6.82412 16.3387 6.65376 16.2505 6.46924 16.23L4.35237 15.9938C4.1163 15.5433 3.92084 15.0727 3.7683 14.5875L5.09862 12.9244C5.21478 12.7793 5.27291 12.5962 5.26174 12.4107C5.24581 12.1397 5.24581 11.8679 5.26174 11.5969C5.27291 11.4114 5.21478 11.2283 5.09862 11.0832L3.7683 9.41723C3.92095 8.93211 4.11641 8.4615 4.35237 8.01098L6.46831 7.77098C6.65282 7.7505 6.82318 7.66231 6.94643 7.52348C7.12689 7.32052 7.31909 7.12832 7.52205 6.94786C7.66144 6.82452 7.74999 6.65377 7.77049 6.46879L8.00581 4.35286C8.45628 4.11679 8.92689 3.92132 9.41206 3.76879L11.0752 5.09911C11.2203 5.21527 11.4034 5.2734 11.5889 5.26223C11.8599 5.24629 12.1317 5.24629 12.4027 5.26223C12.5882 5.2734 12.7713 5.21527 12.9164 5.09911L14.5824 3.76879C15.0675 3.92144 15.5381 4.1169 15.9886 4.35286L16.2286 6.46879C16.2491 6.65331 16.3373 6.82367 16.4761 6.94692C16.6791 7.12738 16.8713 7.31958 17.0517 7.52254C17.175 7.66138 17.3454 7.74956 17.5299 7.77004L19.6467 8.00536C19.8828 8.45583 20.0783 8.92644 20.2308 9.41161L18.9005 11.0747C18.7832 11.2211 18.725 11.406 18.7374 11.5932H18.7402Z" fill="black"/>
</g>
</svg>
