<svg width="40" height="40" viewBox="0 0 40 40" fill="none" xmlns="http://www.w3.org/2000/svg">
<path d="M0 20C0 8.95431 8.95431 0 20 0C31.0457 0 40 8.95431 40 20C40 31.0457 31.0457 40 20 40C8.95431 40 0 31.0457 0 20Z" fill="white"/>
<path d="M15 23H17C17 24.08 18.37 25 20 25C21.63 25 23 24.08 23 23C23 21.9 21.96 21.5 19.76 20.97C17.64 20.44 15 19.78 15 17C15 15.21 16.47 13.69 18.5 13.18V11H21.5V13.18C23.53 13.69 25 15.21 25 17H23C23 15.92 21.63 15 20 15C18.37 15 17 15.92 17 17C17 18.1 18.04 18.5 20.24 19.03C22.36 19.56 25 20.22 25 23C25 24.79 23.53 26.31 21.5 26.82V29H18.5V26.82C16.47 26.31 15 24.79 15 23Z" fill="black"/>
</svg>
