<svg width="40" height="40" viewBox="0 0 40 40" fill="none" xmlns="http://www.w3.org/2000/svg">
<path d="M0 20C0 8.95431 8.95431 0 20 0C31.0457 0 40 8.95431 40 20C40 31.0457 31.0457 40 20 40C8.95431 40 0 31.0457 0 20Z" fill="#120325"/>
<g clip-path="url(#clip0_24001_2525)">
<path d="M26.7538 18.5177C26.7538 19.1428 24.5159 19.666 21.5157 19.7989L21.5185 19.7996C21.4337 19.806 20.9952 19.8321 20.0173 19.8321C19.2395 19.8321 18.6873 19.8088 18.4936 19.7996C15.4877 19.6674 13.2441 19.1441 13.2441 18.5177C13.2441 17.8913 15.4877 17.3687 18.4936 17.2343V19.2785C18.6901 19.2927 19.253 19.3259 20.0308 19.3259C20.9642 19.3259 21.4316 19.287 21.5157 19.2793V17.2357C24.5151 17.3694 26.7538 17.8927 26.7538 18.5177ZM31.9438 19.0643L20.1248 30.3891C20.0912 30.4213 20.0465 30.4393 20 30.4393C19.9535 30.4393 19.9088 30.4213 19.8752 30.3891L8.05621 19.0636C8.02848 19.0376 8.00981 19.0034 8.00293 18.966C7.99606 18.9286 8.00134 18.8899 8.01801 18.8557L12.3942 9.66365C12.4085 9.63267 12.4315 9.6065 12.4603 9.5883C12.4892 9.57009 12.5227 9.56063 12.5568 9.56105H27.4446C27.4786 9.56096 27.5118 9.57065 27.5404 9.58895C27.569 9.60725 27.5917 9.63339 27.6058 9.66425L31.982 18.8564C31.9987 18.8906 32.0039 18.9293 31.9971 18.9667C31.9902 19.0041 31.9715 19.0383 31.9438 19.0643ZM27.4658 18.6605C27.4658 17.8537 24.9143 17.1806 21.5185 17.0236V15.1951H25.7045V12.4056H14.3076V15.1951H18.4928V17.0237C15.091 17.1799 12.5327 17.8537 12.5327 18.6613C12.5327 19.4688 15.091 20.1419 18.4928 20.2989V26.1607H21.5178V20.2968C24.9118 20.1405 27.4658 19.4673 27.4658 18.6605Z" fill="#FAFAFA"/>
</g>
<defs>
<clipPath id="clip0_24001_2525">
<rect width="24" height="24" fill="white" transform="translate(8 8)"/>
</clipPath>
</defs>
</svg>
